  0
SECTION
  2
HEADER
  9
$ACADVER
  1
AC1015
  9
$ACADMAINTVER
 70
     6
  9
$DWGCODEPAGE
  3
ANSI_1252
  9
$INSBASE
 10
0.0
 20
0.0
 30
0.0
  9
$EXTMIN
 10
0.0
 20
0.0
 30
0.0
  9
$EXTMAX
 10
297.0
 20
210.0
 30
0.0
  9
$LIMMIN
 10
0.0
 20
0.0
  9
$LIMMAX
 10
297.0
 20
210.0
  9
$ORTHOMODE
 70
     0
  9
$REGENMODE
 70
     1
  9
$FILLMODE
 70
     1
  9
$QTEXTMODE
 70
     0
  9
$MIRRTEXT
 70
     1
  9
$LTSCALE
 40
1.0
  9
$ATTMODE
 70
     1
  9
$TEXTSIZE
 40
3.5
  9
$TRACEWID
 40
1.0
  9
$TEXTSTYLE
  7
Standard
  9
$CLAYER
  8
0
  9
$CELTYPE
  6
ByLayer
  9
$CECOLOR
 62
   256
  9
$CELTSCALE
 40
1.0
  9
$DISPSILH
 70
     0
  9
$DIMSCALE
 40
1.0
  9
$DIMASZ
 40
3.302
  9
$DIMEXO
 40
1.0
  9
$DIMDLI
 40
3.75
  9
$DIMRND
 40
0.0
  9
$DIMDLE
 40
0.0
  9
$DIMEXE
 40
1.0
  9
$DIMTP
 40
0.0
  9
$DIMTM
 40
0.0
  9
$DIMTXT
 40
3.5
  9
$DIMCEN
 40
2.5
  9
$DIMTSZ
 40
0.0
  9
$DIMTOL
 70
     0
  9
$DIMLIM
 70
     0
  9
$DIMTIH
 70
     1
  9
$DIMTOH
 70
     1
  9
$DIMSE1
 70
     0
  9
$DIMSE2
 70
     0
  9
$DIMTAD
 70
     1
  9
$DIMZIN
 70
     0
  9
$DIMBLK
  1

  9
$DIMASO
 70
     1
  9
$DIMSHO
 70
     1
  9
$DIMPOST
  1

  9
$DIMAPOST
  1

  9
$DIMALT
 70
     0
  9
$DIMALTD
 70
     3
  9
$DIMALTF
 40
0.0393700787
  9
$DIMLFAC
 40
1.0
  9
$DIMTOFL
 70
     1
  9
$DIMTVP
 40
0.0
  9
$DIMTIX
 70
     0
  9
$DIMSOXD
 70
     0
  9
$DIMSAH
 70
     0
  9
$DIMBLK1
  1

  9
$DIMBLK2
  1

  9
$DIMSTYLE
  2
ISO-25
  9
$DIMCLRD
 70
     0
  9
$DIMCLRE
 70
     0
  9
$DIMCLRT
 70
     0
  9
$DIMTFAC
 40
1.0
  9
$DIMGAP
 40
1.524
  9
$DIMJUST
 70
     0
  9
$DIMSD1
 70
     0
  9
$DIMSD2
 70
     0
  9
$DIMTOLJ
 70
     0
  9
$DIMTZIN
 70
     0
  9
$DIMALTZ
 70
     0
  9
$DIMALTTZ
 70
     0
  9
$DIMUPT
 70
     0
  9
$DIMDEC
 70
     2
  9
$DIMTDEC
 70
     2
  9
$DIMALTU
 70
     2
  9
$DIMALTTD
 70
     3
  9
$DIMTXSTY
  7
Standard
  9
$DIMAUNIT
 70
     0
  9
$DIMADEC
 70
     0
  9
$DIMALTRND
 40
0.0
  9
$DIMAZIN
 70
     0
  9
$DIMDSEP
 70
    44
  9
$DIMATFIT
 70
     3
  9
$DIMFRAC
 70
     0
  9
$DIMLDRBLK
  1

  9
$DIMLUNIT
 70
     2
  9
$DIMLWD
 70
    -2
  9
$DIMLWE
 70
    -2
  9
$DIMTMOVE
 70
     0
  9
$LUNITS
 70
     2
  9
$LUPREC
 70
     2
  9
$SKETCHINC
 40
1.0
  9
$FILLETRAD
 40
10.0
  9
$AUNITS
 70
     0
  9
$AUPREC
 70
     0
  9
$MENU
  1
.
  9
$ELEVATION
 40
0.0
  9
$PELEVATION
 40
0.0
  9
$THICKNESS
 40
0.0
  9
$LIMCHECK
 70
     0
  9
$CHAMFERA
 40
0.0
  9
$CHAMFERB
 40
0.0
  9
$CHAMFERC
 40
0.0
  9
$CHAMFERD
 40
0.0
  9
$SKPOLY
 70
     0
  9
$TDCREATE
 40
2457099.517803264
  9
$TDUCREATE
 40
2457099.517803264
  9
$TDUPDATE
 40
2457099.517806713
  9
$TDUUPDATE
 40
2457099.517806713
  9
$TDINDWG
 40
0.0000000116
  9
$TDUSRTIMER
 40
0.0000000116
  9
$USRTIMER
 70
     1
  9
$ANGBASE
 50
0.0
  9
$ANGDIR
 70
     0
  9
$PDMODE
 70
     0
  9
$PDSIZE
 40
-1.0
  9
$PLINEWID
 40
0.0
  9
$SPLFRAME
 70
     0
  9
$SPLINETYPE
 70
     6
  9
$SPLINESEGS
 70
     8
  9
$HANDSEED
  5
195
  9
$SURFTAB1
 70
     6
  9
$SURFTAB2
 70
     6
  9
$SURFTYPE
 70
     6
  9
$SURFU
 70
     6
  9
$SURFV
 70
     6
  9
$UCSBASE
  2

  9
$UCSNAME
  2

  9
$UCSORG
 10
0.0
 20
0.0
 30
0.0
  9
$UCSXDIR
 10
1.0
 20
0.0
 30
0.0
  9
$UCSYDIR
 10
0.0
 20
1.0
 30
0.0
  9
$UCSORTHOREF
  2

  9
$UCSORTHOVIEW
 70
     0
  9
$UCSORGTOP
 10
0.0
 20
0.0
 30
0.0
  9
$UCSORGBOTTOM
 10
0.0
 20
0.0
 30
0.0
  9
$UCSORGLEFT
 10
0.0
 20
0.0
 30
0.0
  9
$UCSORGRIGHT
 10
0.0
 20
0.0
 30
0.0
  9
$UCSORGFRONT
 10
0.0
 20
0.0
 30
0.0
  9
$UCSORGBACK
 10
0.0
 20
0.0
 30
0.0
  9
$PUCSBASE
  2

  9
$PUCSNAME
  2

  9
$PUCSORG
 10
0.0
 20
0.0
 30
0.0
  9
$PUCSXDIR
 10
1.0
 20
0.0
 30
0.0
  9
$PUCSYDIR
 10
0.0
 20
1.0
 30
0.0
  9
$PUCSORTHOREF
  2

  9
$PUCSORTHOVIEW
 70
     0
  9
$PUCSORGTOP
 10
0.0
 20
0.0
 30
0.0
  9
$PUCSORGBOTTOM
 10
0.0
 20
0.0
 30
0.0
  9
$PUCSORGLEFT
 10
0.0
 20
0.0
 30
0.0
  9
$PUCSORGRIGHT
 10
0.0
 20
0.0
 30
0.0
  9
$PUCSORGFRONT
 10
0.0
 20
0.0
 30
0.0
  9
$PUCSORGBACK
 10
0.0
 20
0.0
 30
0.0
  9
$USERI1
 70
     0
  9
$USERI2
 70
     0
  9
$USERI3
 70
     0
  9
$USERI4
 70
     0
  9
$USERI5
 70
     0
  9
$USERR1
 40
0.0
  9
$USERR2
 40
0.0
  9
$USERR3
 40
0.0
  9
$USERR4
 40
0.0
  9
$USERR5
 40
0.0
  9
$WORLDVIEW
 70
     1
  9
$SHADEDGE
 70
     3
  9
$SHADEDIF
 70
    70
  9
$TILEMODE
 70
     1
  9
$MAXACTVP
 70
    64
  9
$PINSBASE
 10
0.0
 20
0.0
 30
0.0
  9
$PLIMCHECK
 70
     0
  9
$PEXTMIN
 10
1.0000000000E+20
 20
1.0000000000E+20
 30
1.0000000000E+20
  9
$PEXTMAX
 10
-1.0000000000E+20
 20
-1.0000000000E+20
 30
-1.0000000000E+20
  9
$PLIMMIN
 10
0.0
 20
0.0
  9
$PLIMMAX
 10
420.0
 20
297.0
  9
$UNITMODE
 70
     0
  9
$VISRETAIN
 70
     1
  9
$PLINEGEN
 70
     0
  9
$PSLTSCALE
 70
     1
  9
$TREEDEPTH
 70
  3020
  9
$CMLSTYLE
  2
Standard
  9
$CMLJUST
 70
     0
  9
$CMLSCALE
 40
20.0
  9
$PROXYGRAPHICS
 70
     1
  9
$MEASUREMENT
 70
     1
  9
$CELWEIGHT
370
    -1
  9
$ENDCAPS
280
     0
  9
$JOINSTYLE
280
     0
  9
$LWDISPLAY
290
     1
  9
$INSUNITS
 70
     4
  9
$HYPERLINKBASE
  1

  9
$STYLESHEET
  1

  9
$XEDIT
290
     1
  9
$CEPSNTYPE
380
     0
  9
$PSTYLEMODE
290
     1
  9
$FINGERPRINTGUID
  2
{9765D238-E068-429C-9A16-187715B68E46}
  9
$VERSIONGUID
  2
{FAEB1C32-E019-11D5-929B-00C0DF256EC4}
  9
$EXTNAMES
290
     1
  9
$PSVPSCALE
 40
0.0
  9
$OLESTARTUP
290
     0
  0
ENDSEC
  0
SECTION
  2
CLASSES
  0
CLASS
  1
ACDBDICTIONARYWDFLT
  2
AcDbDictionaryWithDefault
  3
ObjectDBX Classes
 90
        0
280
     0
281
     0
  0
CLASS
  1
VISUALSTYLE
  2
AcDbVisualStyle
  3
ObjectDBX Classes
 90
     4095
280
     0
281
     0
  0
CLASS
  1
MATERIAL
  2
AcDbMaterial
  3
ObjectDBX Classes
 90
     1153
280
     0
281
     0
  0
CLASS
  1
SCALE
  2
AcDbScale
  3
ObjectDBX Classes
 90
     1153
280
     0
281
     0
  0
CLASS
  1
TABLESTYLE
  2
AcDbTableStyle
  3
ObjectDBX Classes
 90
     4095
280
     0
281
     0
  0
CLASS
  1
MLEADERSTYLE
  2
AcDbMLeaderStyle
  3
ACDB_MLEADERSTYLE_CLASS
 90
     4095
280
     0
281
     0
  0
CLASS
  1
SUN
  2
AcDbSun
  3
SCENEOE
 90
     1153
280
     0
281
     0
  0
CLASS
  1
ACDBPLACEHOLDER
  2
AcDbPlaceHolder
  3
ObjectDBX Classes
 90
        0
280
     0
281
     0
  0
CLASS
  1
LAYOUT
  2
AcDbLayout
  3
ObjectDBX Classes
 90
        0
280
     0
281
     0
  0
ENDSEC
  0
SECTION
  2
TABLES
  0
TABLE
  2
VPORT
  5
8
330
0
100
AcDbSymbolTable
 70
     1
  0
VPORT
  5
29
330
8
100
AcDbSymbolTableRecord
100
AcDbViewportTableRecord
  2
*Active
 70
     0
 10
0.0
 20
0.0
 11
1.0
 21
1.0
 12
148.5
 22
105.0
 13
0.0
 23
0.0
 14
10.0
 24
10.0
 15
10.0
 25
10.0
 16
0.0
 26
0.0
 36
1.0
 17
0.0
 27
0.0
 37
0.0
 40
210.0
 41
1.4142857143
 42
50.0
 43
0.0
 44
0.0
 50
0.0
 51
0.0
 71
     0
 72
  2000
 73
     1
 74
     3
 75
     0
 76
     0
 77
     0
 78
     0
281
     0
 65
     1
110
0.0
120
0.0
130
0.0
111
1.0
121
0.0
131
0.0
112
0.0
122
1.0
132
0.0
 79
     0
146
0.0
  0
ENDTAB
  0
TABLE
  2
LTYPE
  5
5
330
0
100
AcDbSymbolTable
 70
     6
  0
LTYPE
  5
14
330
5
100
AcDbSymbolTableRecord
100
AcDbLinetypeTableRecord
  2
ByBlock
 70
     0
  3

 72
    65
 73
     0
 40
0.0
  0
LTYPE
  5
15
330
5
100
AcDbSymbolTableRecord
100
AcDbLinetypeTableRecord
  2
ByLayer
 70
     0
  3

 72
    65
 73
     0
 40
0.0
  0
LTYPE
  5
16
330
5
100
AcDbSymbolTableRecord
100
AcDbLinetypeTableRecord
  2
Continuous
 70
     0
  3
Solid line
 72
    65
 73
     0
 40
0.0
  0
LTYPE
  5
6E
330
5
100
AcDbSymbolTableRecord
100
AcDbLinetypeTableRecord
  2
HIDDEN
 70
     0
  3
Hidden __ __ __ __ __ __ __ __ __ __ __ __ __ __
 72
    65
 73
     2
 40
1.905
 49
1.27
 74
     0
 49
-0.635
 74
     0
  0
LTYPE
  5
6F
330
5
100
AcDbSymbolTableRecord
100
AcDbLinetypeTableRecord
  2
PHANTOM
 70
     0
  3
Phantom ______  __  __  ______  __  __  ______
 72
    65
 73
     6
 40
12.7
 49
6.35
 74
     0
 49
-1.27
 74
     0
 49
1.27
 74
     0
 49
-1.27
 74
     0
 49
1.27
 74
     0
 49
-1.27
 74
     0
  0
LTYPE
  5
70
330
5
100
AcDbSymbolTableRecord
100
AcDbLinetypeTableRecord
  2
CENTER
 70
     0
  3
Center ____ _ ____ _ ____ _ ____ _ ____ _ ____
 72
    65
 73
     4
 40
10.16
 49
6.35
 74
     0
 49
-1.27
 74
     0
 49
1.27
 74
     0
 49
-1.27
 74
     0
  0
LTYPE
  5
71
330
5
100
AcDbSymbolTableRecord
100
AcDbLinetypeTableRecord
  2
CENTERX2
 70
     0
  3
Center (2x) ________  __  ________  __  _____
 72
    65
 73
     4
 40
20.32
 49
12.7
 74
     0
 49
-2.54
 74
     0
 49
2.54
 74
     0
 49
-2.54
 74
     0
  0
LTYPE
  5
72
330
5
100
AcDbSymbolTableRecord
100
AcDbLinetypeTableRecord
  2
DOT2
 70
     0
  3
Dot (.5x) ........................................
 72
    65
 73
     2
 40
0.635
 49
0.0
 74
     0
 49
-0.635
 74
     0
  0
ENDTAB
  0
TABLE
  2
LAYER
  5
2
330
0
100
AcDbSymbolTable
 70
     7
  0
LAYER
  5
10
330
2
100
AcDbSymbolTableRecord
100
AcDbLayerTableRecord
  2
0
 70
     0
 62
     7
  6
Continuous
370
    -3
390
F
  0
LAYER
  5
73
330
2
100
AcDbSymbolTableRecord
100
AcDbLayerTableRecord
  2
FORMAT
 70
     0
 62
     7
  6
Continuous
370
    -3
390
F
  0
LAYER
  5
74
330
2
100
AcDbSymbolTableRecord
100
AcDbLayerTableRecord
  2
SLD-0
 70
     0
 62
     7
  6
Continuous
370
    -3
390
F
  0
LAYER
  5
75
330
2
100
AcDbSymbolTableRecord
100
AcDbLayerTableRecord
  2
LAYER_1
 70
     0
 62
   179
  6
Continuous
370
    -3
390
F
  0
LAYER
  5
76
330
2
100
AcDbSymbolTableRecord
100
AcDbLayerTableRecord
  2
RED_ITEMS
 70
     0
 62
     1
  6
Continuous
370
    -3
390
F
  0
LAYER
  5
77
330
2
100
AcDbSymbolTableRecord
100
AcDbLayerTableRecord
  2
BLUE_ITEMS
 70
     0
 62
     5
  6
Continuous
370
    -3
390
F
  0
LAYER
  5
78
330
2
100
AcDbSymbolTableRecord
100
AcDbLayerTableRecord
  2
DIMENSIONS
 70
     0
 62
   179
  6
Continuous
370
    -3
390
F
  0
ENDTAB
  0
TABLE
  2
STYLE
  5
3
330
0
100
AcDbSymbolTable
 70
     5
  0
STYLE
  5
11
330
3
100
AcDbSymbolTableRecord
100
AcDbTextStyleTableRecord
  2
Standard
 70
     0
 40
0.0
 41
1.0
 50
0.0
 71
     0
 42
3.5
  3
txt
  4

  0
STYLE
  5
88
330
3
100
AcDbSymbolTableRecord
100
AcDbTextStyleTableRecord
  2
SLDTEXTSTYLE0
 70
     0
 40
0.0
 41
0.605
 50
0.0
 71
     0
 42
3.5
  3
TXT
  4

  0
STYLE
  5
E4
330
3
100
AcDbSymbolTableRecord
100
AcDbTextStyleTableRecord
  2
SLDTEXTSTYLE1
 70
     0
 40
0.0
 41
0.75
 50
0.0
 71
     0
 42
3.5
  3
TXT
  4

  0
STYLE
  5
102
330
3
100
AcDbSymbolTableRecord
100
AcDbTextStyleTableRecord
  2
SLDTEXTSTYLE2
 70
     0
 40
0.0
 41
0.6704545455
 50
0.0
 71
     0
 42
3.5
  3
TXT
  4

  0
STYLE
  5
117
330
3
100
AcDbSymbolTableRecord
100
AcDbTextStyleTableRecord
  2
SLDTEXTSTYLE3
 70
     0
 40
0.0
 41
0.6730769231
 50
0.0
 71
     0
 42
3.5
  3
TXT
  4

  0
ENDTAB
  0
TABLE
  2
VIEW
  5
6
330
0
100
AcDbSymbolTable
 70
     0
  0
ENDTAB
  0
TABLE
  2
UCS
  5
7
330
0
100
AcDbSymbolTable
 70
     0
  0
ENDTAB
  0
TABLE
  2
APPID
  5
9
330
0
100
AcDbSymbolTable
 70
     1
  0
APPID
  5
12
330
9
100
AcDbSymbolTableRecord
100
AcDbRegAppTableRecord
  2
ACAD
 70
     0
  0
ENDTAB
  0
TABLE
  2
DIMSTYLE
  5
A
330
0
100
AcDbSymbolTable
 70
     2
100
AcDbDimStyleTable
  0
DIMSTYLE
105
27
330
A
100
AcDbSymbolTableRecord
100
AcDbDimStyleTableRecord
  2
ISO-25
 70
     0
 41
2.5
 42
0.625
 43
3.75
 44
1.25
 73
     0
 74
     0
 77
     1
 78
     8
140
2.5
141
2.5
143
0.0393700787
147
0.625
171
     3
172
     1
178
     0
271
     2
272
     2
274
     3
278
    44
283
     0
284
     8
340
11
  0
DIMSTYLE
105
17A
102
{ACAD_REACTORS
330
179
330
18B
102
}
330
A
100
AcDbSymbolTableRecord
100
AcDbDimStyleTableRecord
  2
SLDDIMSTYLE0
 70
     0
 41
3.302
 44
0.0
 45
0.000000001
 73
     0
 74
     0
 77
     2
 78
     4
 79
     1
140
3.5
147
0.875
173
     1
178
     0
271
     2
272
     2
276
     2
284
    12
340
E4
341
17B
343
17B
344
17B
  0
ENDTAB
  0
TABLE
  2
BLOCK_RECORD
  5
1
330
0
100
AcDbSymbolTable
 70
     9
  0
BLOCK_RECORD
  5
1F
330
1
100
AcDbSymbolTableRecord
100
AcDbBlockTableRecord
  2
*Model_Space
340
22
  0
BLOCK_RECORD
  5
1B
330
1
100
AcDbSymbolTableRecord
100
AcDbBlockTableRecord
  2
*Paper_Space
340
1E
  0
BLOCK_RECORD
  5
23
330
1
100
AcDbSymbolTableRecord
100
AcDbBlockTableRecord
  2
*Paper_Space0
340
26
  0
BLOCK_RECORD
  5
79
330
1
100
AcDbSymbolTableRecord
100
AcDbBlockTableRecord
  2
Block4
340
0
102
{BLKREFS
331
E0
102
}
  0
BLOCK_RECORD
  5
85
330
1
100
AcDbSymbolTableRecord
100
AcDbBlockTableRecord
  2
SW_NOTE_0
340
0
102
{BLKREFS
331
8B
102
}
  0
BLOCK_RECORD
  5
E1
330
1
100
AcDbSymbolTableRecord
100
AcDbBlockTableRecord
  2
SW_NOTE_1
340
0
102
{BLKREFS
331
F1
102
}
  0
BLOCK_RECORD
  5
FE
330
1
100
AcDbSymbolTableRecord
100
AcDbBlockTableRecord
  2
SW_NOTE_2
340
0
102
{BLKREFS
331
110
102
}
  0
BLOCK_RECORD
  5
131
330
1
100
AcDbSymbolTableRecord
100
AcDbBlockTableRecord
  2
SW_TABLEANNOTATION_0
340
0
102
{BLKREFS
331
145
102
}
  0
BLOCK_RECORD
  5
17B
330
1
100
AcDbSymbolTableRecord
100
AcDbBlockTableRecord
  2
_CLOSED
340
0
102
{BLKREFS
331
185
331
186
331
18F
331
190
102
}
  0
BLOCK_RECORD
  5
182
330
1
100
AcDbSymbolTableRecord
100
AcDbBlockTableRecord
  2
_D
340
0
  0
BLOCK_RECORD
  5
18C
330
1
100
AcDbSymbolTableRecord
100
AcDbBlockTableRecord
  2
_D_1
340
0
  0
ENDTAB
  0
ENDSEC
  0
SECTION
  2
BLOCKS
  0
BLOCK
  5
20
330
1F
100
AcDbEntity
  8
0
100
AcDbBlockBegin
  2
*Model_Space
 70
     0
 10
0.0
 20
0.0
 30
0.0
  3
*Model_Space
  1

  0
ENDBLK
  5
21
330
1F
100
AcDbEntity
  8
0
100
AcDbBlockEnd
  0
BLOCK
  5
1C
330
1B
100
AcDbEntity
 67
     1
  8
0
100
AcDbBlockBegin
  2
*Paper_Space
 70
     0
 10
0.0
 20
0.0
 30
0.0
  3
*Paper_Space
  1

  0
ENDBLK
  5
1D
330
1B
100
AcDbEntity
 67
     1
  8
0
100
AcDbBlockEnd
  0
BLOCK
  5
24
330
23
100
AcDbEntity
  8
0
100
AcDbBlockBegin
  2
*Paper_Space0
 70
     0
 10
0.0
 20
0.0
 30
0.0
  3
*Paper_Space0
  1

  0
ENDBLK
  5
25
330
23
100
AcDbEntity
  8
0
100
AcDbBlockEnd
  0
BLOCK
  5
7A
330
79
100
AcDbEntity
  8
0
100
AcDbBlockBegin
  2
Block4
 70
     0
 10
0.0
 20
0.0
 30
0.0
  3
Block4
  1

  0
CIRCLE
  5
7C
330
79
100
AcDbEntity
  8
FORMAT
100
AcDbCircle
 10
408.2511484099
 20
24.3992579505
 30
0.0
 40
3.428999999999994
  0
CIRCLE
  5
7D
330
79
100
AcDbEntity
  8
FORMAT
100
AcDbCircle
 10
408.2511484099
 20
24.3992579505
 30
0.0
 40
5.460999999999994
  0
LINE
  5
7E
330
79
100
AcDbEntity
  8
FORMAT
100
AcDbLine
 10
399.3611484099
 20
27.8282579505
 30
0.0
 11
399.3611484099
 21
20.9702579505
 31
0.0
  0
LINE
  5
7F
330
79
100
AcDbEntity
  8
FORMAT
100
AcDbLine
 10
390.4711484099
 20
29.9872579505
 30
0.0
 11
390.4711484099
 21
18.8112579505
 31
0.0
  0
LINE
  5
80
330
79
100
AcDbEntity
  8
FORMAT
100
AcDbLine
 10
408.2511484099
 20
18.0492579505
 30
0.0
 11
408.2511484099
 21
30.7492579505
 31
0.0
  0
LINE
  5
81
330
79
100
AcDbEntity
  8
FORMAT
100
AcDbLine
 10
388.1833854037
 20
24.3992579505
 30
0.0
 11
415.0758284412
 21
24.3992579505
 31
0.0
  0
LINE
  5
82
330
79
100
AcDbEntity
  8
FORMAT
100
AcDbLine
 10
408.2511484099
 20
31.2239379818
 30
0.0
 11
408.2511484099
 21
17.5745779192
 31
0.0
  0
LINE
  5
83
330
79
100
AcDbEntity
  8
FORMAT
100
AcDbLine
 10
399.3611484099
 20
27.8282579505
 30
0.0
 11
390.4711484099
 21
29.9872579505
 31
0.0
  0
LINE
  5
84
330
79
100
AcDbEntity
  8
FORMAT
100
AcDbLine
 10
399.3611484099
 20
20.9702579505
 30
0.0
 11
390.4711484099
 21
18.8112579505
 31
0.0
  0
INSERT
  5
8B
330
79
100
AcDbEntity
  8
FORMAT
 62
     7
100
AcDbBlockReference
  2
SW_NOTE_0
 10
418.3017718312
 20
24.1615667825
 30
0.0
  0
ENDBLK
  5
7B
330
79
100
AcDbEntity
  8
0
100
AcDbBlockEnd
  0
BLOCK
  5
86
330
85
100
AcDbEntity
  8
0
100
AcDbBlockBegin
  2
SW_NOTE_0
 70
     0
 10
0.0
 20
0.0
 30
0.0
  3
SW_NOTE_0
  1

  0
MTEXT
  5
89
330
85
100
AcDbEntity
  8
FORMAT
 62
     0
100
AcDbMText
 10
9.23925
 20
2.6193856472
 30
0.0
 40
2.032
 41
0.0
 71
     2
 72
     1
  1
THIRD-ANGLE
  7
SLDTEXTSTYLE0
 73
     1
 44
1.0
  0
MTEXT
  5
8A
330
85
100
AcDbEntity
  8
FORMAT
 62
     0
100
AcDbMText
 10
9.2454235131
 20
-0.4126143897
 30
0.0
 40
2.032
 41
0.0
 71
     2
 72
     1
  1
PROJECTION
  7
SLDTEXTSTYLE0
 73
     1
 44
1.0
  0
ENDBLK
  5
87
330
85
100
AcDbEntity
  8
0
100
AcDbBlockEnd
  0
BLOCK
  5
E2
330
E1
100
AcDbEntity
  8
0
100
AcDbBlockBegin
  2
SW_NOTE_1
 70
     0
 10
0.0
 20
0.0
 30
0.0
  3
SW_NOTE_1
  1

  0
MTEXT
  5
E5
330
E1
100
AcDbEntity
  8
FORMAT
 62
     0
100
AcDbMText
 10
0.0
 20
3.4106583948
 30
0.0
 40
2.6458333333
 41
0.0
 71
     1
 72
     1
  1
NOTES:
  7
SLDTEXTSTYLE1
 73
     1
 44
1.0
  0
MTEXT
  5
E6
330
E1
100
AcDbEntity
  8
FORMAT
 62
     0
100
AcDbMText
 10
9.9999997765
 20
-3.6448970755
 30
0.0
 40
2.6458333333
 41
0.0
 71
     1
 72
     1
  1
MATERIAL: 0.5MM STAINLESS STEEL
  7
SLDTEXTSTYLE1
 73
     1
 44
1.0
  0
MTEXT
  5
E7
330
E1
100
AcDbEntity
  8
FORMAT
 62
     0
100
AcDbMText
 10
0.0
 20
-3.6448970755
 30
0.0
 40
2.6458333333
 41
0.0
 71
     1
 72
     1
  1
1.
  7
SLDTEXTSTYLE1
 73
     1
 44
1.0
  0
MTEXT
  5
E8
330
E1
100
AcDbEntity
  8
FORMAT
 62
     0
100
AcDbMText
 10
10.0
 20
-7.1726748106
 30
0.0
 40
2.6458333333
 41
0.0
 71
     1
 72
     1
  1
ESTIMATED MASS: 0.98 GRAMMES
  7
SLDTEXTSTYLE1
 73
     1
 44
1.0
  0
MTEXT
  5
E9
330
E1
100
AcDbEntity
  8
FORMAT
 62
     0
100
AcDbMText
 10
9.9999997765
 20
-14.2282302809
 30
0.0
 40
2.6458333333
 41
0.0
 71
     1
 72
     1
  1
FINISH: CLEAN
  7
SLDTEXTSTYLE1
 73
     1
 44
1.0
  0
MTEXT
  5
EA
330
E1
100
AcDbEntity
  8
FORMAT
 62
     0
100
AcDbMText
 10
0.0
 20
-14.2282302809
 30
0.0
 40
2.6458333333
 41
0.0
 71
     1
 72
     1
  1
2.
  7
SLDTEXTSTYLE1
 73
     1
 44
1.0
  0
MTEXT
  5
EB
330
E1
100
AcDbEntity
  8
FORMAT
 62
     0
100
AcDbMText
 10
10.0
 20
-17.7560080161
 30
0.0
 40
2.6458333333
 41
0.0
 71
     1
 72
     1
  1
ALL DIMENSIONS APPLY AFTER FINISH.
  7
SLDTEXTSTYLE1
 73
     1
 44
1.0
  0
MTEXT
  5
EC
330
E1
100
AcDbEntity
  8
FORMAT
 62
     0
100
AcDbMText
 10
9.9999997765
 20
-24.8115634863
 30
0.0
 40
2.6458333333
 41
0.0
 71
     1
 72
     1
  1
MATERIAL AND FINISH MUST COMPLY WITH
  7
SLDTEXTSTYLE1
 73
     1
 44
1.0
  0
MTEXT
  5
ED
330
E1
100
AcDbEntity
  8
FORMAT
 62
     0
100
AcDbMText
 10
0.0
 20
-24.8115634863
 30
0.0
 40
2.6458333333
 41
0.0
 71
     1
 72
     1
  1
3.
  7
SLDTEXTSTYLE1
 73
     1
 44
1.0
  0
MTEXT
  5
EE
330
E1
100
AcDbEntity
  8
FORMAT
 62
     0
100
AcDbMText
 10
10.0
 20
-28.3393412215
 30
0.0
 40
2.6458333333
 41
0.0
 71
     1
 72
     1
  1
CURRENT ROHS LEGISLATION.
  7
SLDTEXTSTYLE1
 73
     1
 44
1.0
  0
MTEXT
  5
EF
330
E1
100
AcDbEntity
  8
FORMAT
 62
     0
100
AcDbMText
 10
9.9999997765
 20
-35.3948966918
 30
0.0
 40
2.6458333333
 41
0.0
 71
     1
 72
     1
  1
BREAK ALL SHARPS.
  7
SLDTEXTSTYLE1
 73
     1
 44
1.0
  0
MTEXT
  5
F0
330
E1
100
AcDbEntity
  8
FORMAT
 62
     0
100
AcDbMText
 10
0.0
 20
-35.3948966918
 30
0.0
 40
2.6458333333
 41
0.0
 71
     1
 72
     1
  1
4.
  7
SLDTEXTSTYLE1
 73
     1
 44
1.0
  0
ENDBLK
  5
E3
330
E1
100
AcDbEntity
  8
0
100
AcDbBlockEnd
  0
BLOCK
  5
FF
330
FE
100
AcDbEntity
  8
0
100
AcDbBlockBegin
  2
SW_NOTE_2
 70
     0
 10
0.0
 20
0.0
 30
0.0
  3
SW_NOTE_2
  1

  0
MTEXT
  5
101
330
FE
100
AcDbEntity
  8
FORMAT
 62
     0
100
AcDbMText
 10
0.0
 20
2.9468088531
 30
0.0
 40
2.286
 41
0.0
 71
     1
 72
     1
  1
DIMENSIONS ARE IN MILLIMETERS
  7
SLDTEXTSTYLE1
 73
     1
 44
1.0
  0
MTEXT
  5
103
330
FE
100
AcDbEntity
  8
FORMAT
 62
     0
100
AcDbMText
 10
0.0
 20
-1.3853021311
 30
0.0
 40
2.286
 41
0.0
 71
     1
 72
     1
  1
STD TOLERANCES:      X
  7
SLDTEXTSTYLE2
 73
     1
 44
1.0
  0
MTEXT
  5
104
330
FE
100
AcDbEntity
  8
FORMAT
 62
     0
100
AcDbMText
 10
32.0881381631
 20
-1.3853021311
 30
0.0
 40
2.286
 41
0.0
 71
     1
 72
     1
  1
%%p
  7
SLDTEXTSTYLE1
 73
     1
 44
1.0
  0
MTEXT
  5
105
330
FE
100
AcDbEntity
  8
FORMAT
 62
     0
100
AcDbMText
 10
34.2655517161
 20
-1.3853021311
 30
0.0
 40
2.286
 41
0.0
 71
     1
 72
     1
  1
1
  7
SLDTEXTSTYLE1
 73
     1
 44
1.0
  0
MTEXT
  5
106
330
FE
100
AcDbEntity
  8
FORMAT
 62
     0
100
AcDbMText
 10
30.0
 20
-4.3063020213
 30
0.0
 40
2.286
 41
0.0
 71
     1
 72
     1
  1
X.X
  7
SLDTEXTSTYLE1
 73
     1
 44
1.0
  0
MTEXT
  5
107
330
FE
100
AcDbEntity
  8
FORMAT
 62
     0
100
AcDbMText
 10
34.4493656605
 20
-4.3063020213
 30
0.0
 40
2.286
 41
0.0
 71
     1
 72
     1
  1
%%p
  7
SLDTEXTSTYLE1
 73
     1
 44
1.0
  0
MTEXT
  5
108
330
FE
100
AcDbEntity
  8
FORMAT
 62
     0
100
AcDbMText
 10
36.6267806105
 20
-4.3063020213
 30
0.0
 40
2.286
 41
0.0
 71
     1
 72
     1
  1
0.5
  7
SLDTEXTSTYLE1
 73
     1
 44
1.0
  0
MTEXT
  5
109
330
FE
100
AcDbEntity
  8
FORMAT
 62
     0
100
AcDbMText
 10
30.0
 20
-7.2273019115
 30
0.0
 40
2.286
 41
0.0
 71
     1
 72
     1
  1
X.XX
  7
SLDTEXTSTYLE1
 73
     1
 44
1.0
  0
MTEXT
  5
10A
330
FE
100
AcDbEntity
  8
FORMAT
 62
     0
100
AcDbMText
 10
36.2817377038
 20
-7.2273019115
 30
0.0
 40
2.286
 41
0.0
 71
     1
 72
     1
  1
%%p
  7
SLDTEXTSTYLE1
 73
     1
 44
1.0
  0
MTEXT
  5
10B
330
FE
100
AcDbEntity
  8
FORMAT
 62
     0
100
AcDbMText
 10
38.4591526538
 20
-7.2273019115
 30
0.0
 40
2.286
 41
0.0
 71
     1
 72
     1
  1
0.10
  7
SLDTEXTSTYLE1
 73
     1
 44
1.0
  0
MTEXT
  5
10C
330
FE
100
AcDbEntity
  8
FORMAT
 62
     0
100
AcDbMText
 10
30.0
 20
-10.1483018017
 30
0.0
 40
2.286
 41
0.0
 71
     1
 72
     1
  1
ANGLES:
  7
SLDTEXTSTYLE1
 73
     1
 44
1.0
  0
MTEXT
  5
10D
330
FE
100
AcDbEntity
  8
FORMAT
 62
     0
100
AcDbMText
 10
43.1095750257
 20
-10.1483018017
 30
0.0
 40
2.286
 41
0.0
 71
     1
 72
     1
  1
%%p
  7
SLDTEXTSTYLE1
 73
     1
 44
1.0
  0
MTEXT
  5
10E
330
FE
100
AcDbEntity
  8
FORMAT
 62
     0
100
AcDbMText
 10
45.2869895101
 20
-10.1483018017
 30
0.0
 40
2.286
 41
0.0
 71
     1
 72
     1
  1
0.5
  7
SLDTEXTSTYLE1
 73
     1
 44
1.0
  0
MTEXT
  5
10F
330
FE
100
AcDbEntity
  8
FORMAT
 62
     0
100
AcDbMText
 10
49.3934552372
 20
-10.1483018017
 30
0.0
 40
2.286
 41
0.0
 71
     1
 72
     1
  1
%%d
  7
SLDTEXTSTYLE1
 73
     1
 44
1.0
  0
ENDBLK
  5
100
330
FE
100
AcDbEntity
  8
0
100
AcDbBlockEnd
  0
BLOCK
  5
132
330
131
100
AcDbEntity
  8
0
100
AcDbBlockBegin
  2
SW_TABLEANNOTATION_0
 70
     0
 10
0.0
 20
0.0
 30
0.0
  3
SW_TABLEANNOTATION_0
  1

  0
LINE
  5
134
330
131
100
AcDbEntity
  8
DIMENSIONS
 62
     0
100
AcDbLine
 10
0.0
 20
0.0
 30
0.0
 11
0.0
 21
-14.1597366315
 31
0.0
  0
LINE
  5
135
330
131
100
AcDbEntity
  8
DIMENSIONS
 62
     0
100
AcDbLine
 10
0.0
 20
-14.1597366315
 30
0.0
 11
75.464187933
 21
-14.1597366315
 31
0.0
  0
LINE
  5
136
330
131
100
AcDbEntity
  8
DIMENSIONS
 62
     0
100
AcDbLine
 10
75.464187933
 20
-14.1597366315
 30
0.0
 11
75.464187933
 21
0.0
 31
0.0
  0
LINE
  5
137
330
131
100
AcDbEntity
  8
DIMENSIONS
 62
     0
100
AcDbLine
 10
75.464187933
 20
0.0
 30
0.0
 11
0.0
 21
0.0
 31
0.0
  0
LINE
  5
138
330
131
100
AcDbEntity
  8
DIMENSIONS
 62
     0
100
AcDbLine
 10
9.4330234916
 20
-5.1800270621
 30
0.0
 11
9.4330234916
 21
-9.6698818468
 31
0.0
  0
LINE
  5
139
330
131
100
AcDbEntity
  8
DIMENSIONS
 62
     0
100
AcDbLine
 10
56.5981409498
 20
-5.1800270621
 30
0.0
 11
56.5981409498
 21
-9.6698818468
 31
0.0
  0
LINE
  5
13A
330
131
100
AcDbEntity
  8
DIMENSIONS
 62
     0
100
AcDbLine
 10
0.0
 20
-5.1800270621
 30
0.0
 11
75.464187933
 21
-5.1800270621
 31
0.0
  0
LINE
  5
13B
330
131
100
AcDbEntity
  8
DIMENSIONS
 62
     0
100
AcDbLine
 10
9.4330234916
 20
-9.6698818468
 30
0.0
 11
9.4330234916
 21
-14.1597366315
 31
0.0
  0
LINE
  5
13C
330
131
100
AcDbEntity
  8
DIMENSIONS
 62
     0
100
AcDbLine
 10
56.5981409498
 20
-9.6698818468
 30
0.0
 11
56.5981409498
 21
-14.1597366315
 31
0.0
  0
LINE
  5
13D
330
131
100
AcDbEntity
  8
DIMENSIONS
 62
     0
100
AcDbLine
 10
0.0
 20
-9.6698818468
 30
0.0
 11
75.464187933
 21
-9.6698818468
 31
0.0
  0
MTEXT
  5
13E
330
131
100
AcDbEntity
  8
DIMENSIONS
 62
     0
100
AcDbMText
 10
30.8098098253
 20
-1.5313480257
 30
0.0
 40
2.1166666667
 41
0.0
 71
     1
 72
     1
  1
REVISIONS
  7
SLDTEXTSTYLE1
 73
     1
 44
1.0
  0
MTEXT
  5
13F
330
131
100
AcDbEntity
  8
DIMENSIONS
 62
     0
100
AcDbMText
 10
1.7218202584
 20
-6.3662889491
 30
0.0
 40
2.1166666667
 41
0.0
 71
     1
 72
     1
  1
REV.
  7
SLDTEXTSTYLE1
 73
     1
 44
1.0
  0
MTEXT
  5
140
330
131
100
AcDbEntity
  8
DIMENSIONS
 62
     0
100
AcDbMText
 10
24.1549801771
 20
-6.3662889491
 30
0.0
 40
2.1166666667
 41
0.0
 71
     1
 72
     1
  1
DESCRIPTION
  7
SLDTEXTSTYLE1
 73
     1
 44
1.0
  0
MTEXT
  5
141
330
131
100
AcDbEntity
  8
DIMENSIONS
 62
     0
100
AcDbMText
 10
62.5778620114
 20
-6.3662889491
 30
0.0
 40
2.1166666667
 41
0.0
 71
     1
 72
     1
  1
DATE
  7
SLDTEXTSTYLE1
 73
     1
 44
1.0
  0
MTEXT
  5
142
330
131
100
AcDbEntity
  8
DIMENSIONS
 62
     0
100
AcDbMText
 10
3.6718975053
 20
-10.8561437338
 30
0.0
 40
2.1166666667
 41
0.0
 71
     1
 72
     1
  1
A
  7
SLDTEXTSTYLE1
 73
     1
 44
1.0
  0
MTEXT
  5
143
330
131
100
AcDbEntity
  8
DIMENSIONS
 62
     0
100
AcDbMText
 10
21.4229128082
 20
-10.8561437338
 30
0.0
 40
2.1166666667
 41
0.0
 71
     1
 72
     1
  1
INITIAL DRAWING
  7
SLDTEXTSTYLE1
 73
     1
 44
1.0
  0
MTEXT
  5
144
330
131
100
AcDbEntity
  8
DIMENSIONS
 62
     0
100
AcDbMText
 10
60.1044981257
 20
-10.8561437338
 30
0.0
 40
2.1166666667
 41
0.0
 71
     1
 72
     1
  1
17/03/15
  7
SLDTEXTSTYLE1
 73
     1
 44
1.0
  0
ENDBLK
  5
133
330
131
100
AcDbEntity
  8
0
100
AcDbBlockEnd
  0
BLOCK
  5
17C
330
17B
100
AcDbEntity
  8
0
100
AcDbBlockBegin
  2
_CLOSED
 70
     0
 10
0.0
 20
0.0
 30
0.0
  3
_CLOSED
  1

  0
LINE
  5
17E
330
17B
100
AcDbEntity
  8
0
  6
ByBlock
 62
     0
370
    -2
100
AcDbLine
 10
-1.0
 20
0.166667
 30
0.0
 11
0.0
 21
0.0
 31
0.0
  0
LINE
  5
17F
330
17B
100
AcDbEntity
  8
0
  6
ByBlock
 62
     0
370
    -2
100
AcDbLine
 10
0.0
 20
0.0
 30
0.0
 11
-1.0
 21
-0.166667
 31
0.0
  0
LINE
  5
180
330
17B
100
AcDbEntity
  8
0
  6
ByBlock
 62
     0
370
    -2
100
AcDbLine
 10
-1.0
 20
0.166667
 30
0.0
 11
-1.0
 21
-0.166667
 31
0.0
  0
LINE
  5
181
330
17B
100
AcDbEntity
  8
0
  6
ByBlock
 62
     0
370
    -2
100
AcDbLine
 10
0.0
 20
0.0
 30
0.0
 11
-1.0
 21
0.0
 31
0.0
  0
ENDBLK
  5
17D
330
17B
100
AcDbEntity
  8
0
100
AcDbBlockEnd
  0
BLOCK
  5
183
330
182
100
AcDbEntity
  8
0
100
AcDbBlockBegin
  2
_D
 70
     0
 10
0.0
 20
0.0
 30
0.0
  3
_D
  1

  0
INSERT
  5
185
330
182
100
AcDbEntity
  8
DIMENSIONS
100
AcDbBlockReference
  2
_CLOSED
 10
263.6227552141
 20
166.83
 30
0.2
 41
3.302
 42
3.302
 50
90.0
  0
INSERT
  5
186
330
182
100
AcDbEntity
  8
DIMENSIONS
100
AcDbBlockReference
  2
_CLOSED
 10
263.6227552141
 20
102.33
 30
0.2
 41
3.302
 42
3.302
 50
270.0
  0
LINE
  5
187
330
182
100
AcDbEntity
  8
DIMENSIONS
100
AcDbLine
 10
212.6227552141
 20
166.83
 30
0.0
 11
264.6227552141
 21
166.83
 31
0.0
  0
LINE
  5
188
330
182
100
AcDbEntity
  8
DIMENSIONS
100
AcDbLine
 10
212.6227552141
 20
102.33
 30
0.0
 11
264.6227552141
 21
102.33
 31
0.0
  0
LINE
  5
189
330
182
100
AcDbEntity
  8
DIMENSIONS
100
AcDbLine
 10
263.6227552141
 20
166.83
 30
0.0
 11
263.6227552141
 21
102.33
 31
0.0
  0
MTEXT
  5
18A
330
182
100
AcDbEntity
  8
DIMENSIONS
100
AcDbMText
 10
259.1110182995
 20
129.4310070208
 30
0.0
 40
3.5
 41
0.0
 71
     1
 72
     1
  1
64.50
  7
SLDTEXTSTYLE1
 11
-7.932373437343760E-15
 21
1.0
 31
0.0
 73
     1
 44
1.0
  0
ENDBLK
  5
184
330
182
100
AcDbEntity
  8
0
100
AcDbBlockEnd
  0
BLOCK
  5
18D
330
18C
100
AcDbEntity
  8
0
100
AcDbBlockBegin
  2
_D_1
 70
     0
 10
0.0
 20
0.0
 30
0.0
  3
_D_1
  1

  0
INSERT
  5
18F
330
18C
100
AcDbEntity
  8
DIMENSIONS
100
AcDbBlockReference
  2
_CLOSED
 10
223.6227552141
 20
86.33
 30
0.2
 41
3.302
 42
3.302
 50
0.0
  0
INSERT
  5
190
330
18C
100
AcDbEntity
  8
DIMENSIONS
100
AcDbBlockReference
  2
_CLOSED
 10
168.5227552141
 20
86.33
 30
0.2
 41
3.302
 42
3.302
 50
180.0
  0
LINE
  5
191
330
18C
100
AcDbEntity
  8
DIMENSIONS
100
AcDbLine
 10
223.6227552141
 20
114.33
 30
0.0
 11
223.6227552141
 21
85.33
 31
0.0
  0
LINE
  5
192
330
18C
100
AcDbEntity
  8
DIMENSIONS
100
AcDbLine
 10
168.5227552141
 20
116.33
 30
0.0
 11
168.5227552141
 21
85.33
 31
0.0
  0
LINE
  5
193
330
18C
100
AcDbEntity
  8
DIMENSIONS
100
AcDbLine
 10
223.6227552141
 20
86.33
 30
0.0
 11
168.5227552141
 21
86.33
 31
0.0
  0
MTEXT
  5
194
330
18C
100
AcDbEntity
  8
DIMENSIONS
100
AcDbMText
 10
191.5015490867
 20
90.8417369146
 30
0.0
 40
3.5
 41
0.0
 71
     1
 72
     1
  1
55.10
  7
SLDTEXTSTYLE1
 73
     1
 44
1.0
  0
ENDBLK
  5
18E
330
18C
100
AcDbEntity
  8
0
100
AcDbBlockEnd
  0
ENDSEC
  0
SECTION
  2
ENTITIES
  0
LINE
  5
8C
330
1F
100
AcDbEntity
  8
SLD-0
  6
Continuous
100
AcDbLine
 10
222.8225930181
 20
42.4793218898
 30
0.0
 11
220.3958700181
 21
40.0527403898
 31
0.0
  0
LINE
  5
8D
330
1F
100
AcDbEntity
  8
FORMAT
100
AcDbLine
 10
8.5
 20
203.0
 30
0.0
 11
288.5
 21
203.0
 31
0.0
  0
LINE
  5
8E
330
1F
100
AcDbEntity
  8
SLD-0
  6
Continuous
100
AcDbLine
 10
214.03171577
 20
7.0
 30
0.0
 11
214.03171577
 21
47.0
 31
0.0
  0
LINE
  5
8F
330
1F
100
AcDbEntity
  8
SLD-0
100
AcDbLine
 10
288.5
 20
47.0
 30
0.0
 11
132.80835144
 21
47.0
 31
0.0
  0
LINE
  5
90
330
1F
100
AcDbEntity
  8
FORMAT
100
AcDbLine
 10
8.5
 20
203.0
 30
0.0
 11
8.5
 21
7.0
 31
0.0
  0
LINE
  5
91
330
1F
100
AcDbEntity
  8
SLD-0
100
AcDbLine
 10
159.9891526
 20
20.41366699
 30
0.0
 11
132.80835144
 21
20.41366699
 31
0.0
  0
LINE
  5
92
330
1F
100
AcDbEntity
  8
SLD-0
100
AcDbLine
 10
132.80835144
 20
7.0
 30
0.0
 11
132.80835144
 21
47.0
 31
0.0
  0
LINE
  5
93
330
1F
100
AcDbEntity
  8
SLD-0
100
AcDbLine
 10
132.80835144
 20
28.6927399423
 30
0.0
 11
159.9891526
 21
28.6927399423
 31
0.0
  0
LINE
  5
94
330
1F
100
AcDbEntity
  8
SLD-0
100
AcDbLine
 10
194.5673849
 20
25.0
 30
0.0
 11
194.5673849
 21
7.0
 31
0.0
  0
LINE
  5
95
330
1F
100
AcDbEntity
  8
SLD-0
100
AcDbLine
 10
288.5
 20
12.34464328
 30
0.0
 11
214.03171577
 21
12.34464328
 31
0.0
  0
LINE
  5
96
330
1F
100
AcDbEntity
  8
SLD-0
100
AcDbLine
 10
214.03171577
 20
28.89268986
 30
0.0
 11
288.5
 21
28.89268986
 31
0.0
  0
LINE
  5
97
330
1F
100
AcDbEntity
  8
SLD-0
100
AcDbLine
 10
227.89349551
 20
12.34464328
 30
0.0
 11
227.89349551
 21
22.79324961
 31
0.0
  0
LINE
  5
98
330
1F
100
AcDbEntity
  8
SLD-0
  6
Continuous
100
AcDbLine
 10
288.5
 20
38.7976776821
 30
0.0
 11
231.94131021
 21
38.7976776821
 31
0.0
  0
LINE
  5
99
330
1F
100
AcDbEntity
  8
SLD-0
100
AcDbLine
 10
214.03171577
 20
25.0
 30
0.0
 11
159.9891526
 21
25.0
 31
0.0
  0
LINE
  5
9A
330
1F
100
AcDbEntity
  8
SLD-0
100
AcDbLine
 10
214.03171577
 20
19.0
 30
0.0
 11
159.9891526
 21
19.0
 31
0.0
  0
LINE
  5
9B
330
1F
100
AcDbEntity
  8
FORMAT
100
AcDbLine
 10
214.03171577
 20
13.0
 30
0.0
 11
159.9891526
 21
13.0
 31
0.0
  0
LINE
  5
9C
330
1F
100
AcDbEntity
  8
SLD-0
100
AcDbLine
 10
250.6271035102
 20
12.34464328
 30
0.0
 11
250.6271035102
 21
22.79324961
 31
0.0
  0
LINE
  5
9D
330
1F
100
AcDbEntity
  8
SLD-0
100
AcDbLine
 10
159.9891526
 20
7.0
 30
0.0
 11
159.9891526
 21
47.0
 31
0.0
  0
LINE
  5
9E
330
1F
100
AcDbEntity
  8
SLD-0
100
AcDbLine
 10
252.34228224
 20
7.0
 30
0.0
 11
252.34228224
 21
12.34464328
 31
0.0
  0
LINE
  5
9F
330
1F
100
AcDbEntity
  8
SLD-0
100
AcDbLine
 10
288.5
 20
22.79324961
 30
0.0
 11
214.03171577
 21
22.79324961
 31
0.0
  0
LINE
  5
A0
330
1F
100
AcDbEntity
  8
SLD-0
100
AcDbLine
 10
231.94131021
 20
47.0
 30
0.0
 11
231.94131021
 21
28.89268986
 31
0.0
  0
LINE
  5
A1
330
1F
100
AcDbEntity
  8
FORMAT
100
AcDbLine
 10
8.5
 20
7.0
 30
0.0
 11
288.5
 21
7.0
 31
0.0
  0
LINE
  5
A2
330
1F
100
AcDbEntity
  8
SLD-0
  6
Continuous
100
AcDbLine
 10
225.8233385181
 20
40.0527403898
 30
0.0
 11
223.2484135181
 21
42.4793218898
 31
0.0
  0
LINE
  5
A3
330
1F
100
AcDbEntity
  8
FORMAT
100
AcDbLine
 10
288.5
 20
203.0
 30
0.0
 11
288.5
 21
7.0
 31
0.0
  0
LINE
  5
A4
330
1F
100
AcDbEntity
  8
FORMAT
100
AcDbLine
 10
148.5
 20
203.0
 30
0.0
 11
148.5
 21
205.0
 31
0.0
  0
LINE
  5
A5
330
1F
100
AcDbEntity
  8
FORMAT
100
AcDbLine
 10
218.5
 20
203.0
 30
0.0
 11
218.5
 21
205.0
 31
0.0
  0
LINE
  5
A6
330
1F
100
AcDbEntity
  8
FORMAT
100
AcDbLine
 10
78.5
 20
203.0
 30
0.0
 11
78.5
 21
205.0
 31
0.0
  0
LINE
  5
A7
330
1F
100
AcDbEntity
  8
FORMAT
100
AcDbLine
 10
78.5
 20
5.0
 30
0.0
 11
78.5
 21
7.0
 31
0.0
  0
LINE
  5
A8
330
1F
100
AcDbEntity
  8
FORMAT
100
AcDbLine
 10
148.5
 20
5.0
 30
0.0
 11
148.5
 21
7.0
 31
0.0
  0
LINE
  5
A9
330
1F
100
AcDbEntity
  8
FORMAT
100
AcDbLine
 10
218.5
 20
5.0
 30
0.0
 11
218.5
 21
7.0
 31
0.0
  0
LINE
  5
AA
330
1F
100
AcDbEntity
  8
FORMAT
100
AcDbLine
 10
8.5
 20
105.0
 30
0.0
 11
6.5
 21
105.0
 31
0.0
  0
LINE
  5
AB
330
1F
100
AcDbEntity
  8
FORMAT
100
AcDbLine
 10
8.5
 20
154.0
 30
0.0
 11
6.5
 21
154.0
 31
0.0
  0
LINE
  5
AC
330
1F
100
AcDbEntity
  8
FORMAT
100
AcDbLine
 10
8.5
 20
56.0
 30
0.0
 11
6.5
 21
56.0
 31
0.0
  0
LINE
  5
AD
330
1F
100
AcDbEntity
  8
FORMAT
100
AcDbLine
 10
290.5
 20
154.0
 30
0.0
 11
288.5
 21
154.0
 31
0.0
  0
LINE
  5
AE
330
1F
100
AcDbEntity
  8
FORMAT
100
AcDbLine
 10
290.5
 20
105.0
 30
0.0
 11
288.5
 21
105.0
 31
0.0
  0
LINE
  5
AF
330
1F
100
AcDbEntity
  8
FORMAT
100
AcDbLine
 10
290.5
 20
56.0
 30
0.0
 11
288.5
 21
56.0
 31
0.0
  0
LINE
  5
B0
330
1F
100
AcDbEntity
  8
SLD-0
100
AcDbLine
 10
132.80835144
 20
37.8257189764
 30
0.0
 11
159.9891526
 21
37.8257189764
 31
0.0
  0
LINE
  5
B1
330
1F
100
AcDbEntity
  8
SLD-0
  6
Continuous
100
AcDbLine
 10
219.1914690181
 20
43.4626903898
 30
0.0
 11
226.7308415181
 21
43.4626903898
 31
0.0
  0
LINE
  5
B2
330
1F
100
AcDbEntity
  8
SLD-0
  6
Continuous
100
AcDbLine
 10
226.8610695181
 20
43.5176883898
 30
0.0
 11
228.3245505181
 21
44.9812218898
 31
0.0
  0
LINE
  5
B3
330
1F
100
AcDbEntity
  8
SLD-0
  6
Continuous
100
AcDbLine
 10
227.9352425181
 20
45.3333118898
 30
0.0
 11
219.1914690181
 21
45.3333118898
 31
0.0
  0
LINE
  5
B4
330
1F
100
AcDbEntity
  8
SLD-0
  6
Continuous
100
AcDbLine
 10
215.6169670181
 20
41.7585443898
 30
0.0
 11
215.6176565181
 21
33.0149643898
 31
0.0
  0
LINE
  5
B5
330
1F
100
AcDbEntity
  8
SLD-0
  6
Continuous
100
AcDbLine
 10
215.9697450181
 20
32.6264328898
 30
0.0
 11
217.4325365181
 21
34.0898963898
 31
0.0
  0
LINE
  5
B6
330
1F
100
AcDbEntity
  8
SLD-0
  6
Continuous
100
AcDbLine
 10
217.4882755181
 20
34.2193653898
 30
0.0
 11
217.4875875181
 21
41.7585443898
 31
0.0
  0
LINE
  5
B7
330
1F
100
AcDbEntity
  8
SLD-0
  6
Continuous
100
AcDbLine
 10
226.8795375181
 20
32.3651478898
 30
0.0
 11
219.3403585181
 21
32.3651478898
 31
0.0
  0
LINE
  5
B8
330
1F
100
AcDbEntity
  8
SLD-0
  6
Continuous
100
AcDbLine
 10
219.2101310181
 20
32.3094088898
 30
0.0
 11
217.7466500181
 21
30.8459313898
 31
0.0
  0
LINE
  5
B9
330
1F
100
AcDbEntity
  8
SLD-0
  6
Continuous
100
AcDbLine
 10
218.1359575181
 20
30.4938418898
 30
0.0
 11
226.8795375181
 21
30.4938418898
 31
0.0
  0
LINE
  5
BA
330
1F
100
AcDbEntity
  8
SLD-0
  6
Continuous
100
AcDbLine
 10
230.4542345181
 20
34.0692233898
 30
0.0
 11
230.4535465181
 21
42.8121328898
 31
0.0
  0
LINE
  5
BB
330
1F
100
AcDbEntity
  8
SLD-0
  6
Continuous
100
AcDbLine
 10
230.1014565181
 20
43.2007348898
 30
0.0
 11
228.6379760181
 21
41.7372538898
 31
0.0
  0
LINE
  5
BC
330
1F
100
AcDbEntity
  8
SLD-0
  6
Continuous
100
AcDbLine
 10
228.5829250181
 20
41.6077843898
 30
0.0
 11
228.5834715181
 21
34.0692233898
 31
0.0
  0
SPLINE
  5
BD
330
1F
100
AcDbEntity
  8
SLD-0
  6
Continuous
100
AcDbSpline
210
0.0
220
0.0
230
1.0
 70
     8
 71
     3
 72
     8
 73
     4
 74
     0
 42
0.000000001
 43
0.00000001
 40
0.0
 40
0.0
 40
0.0
 40
0.0
 40
1.0
 40
1.0
 40
1.0
 40
1.0
 10
223.044525518089
 20
42.57173238983153
 30
0.0
 10
222.969348518089
 20
42.57173238983153
 30
0.0
 10
222.879778018089
 20
42.53588988983155
 30
0.0
 10
222.822593018089
 20
42.47932188983152
 30
0.0
  0
SPLINE
  5
BE
330
1F
100
AcDbEntity
  8
SLD-0
  6
Continuous
100
AcDbSpline
210
0.0
220
0.0
230
1.0
 70
     8
 71
     3
 72
     8
 73
     4
 74
     0
 42
0.000000001
 43
0.00000001
 40
0.0
 40
0.0
 40
0.0
 40
0.0
 40
1.0
 40
1.0
 40
1.0
 40
1.0
 10
220.395870018089
 20
40.05274038983152
 30
0.0
 10
220.388973018089
 20
40.04640788983152
 30
0.0
 10
220.382781518089
 20
40.04019888983153
 30
0.0
 10
220.377331518089
 20
40.03400788983152
 30
0.0
  0
SPLINE
  5
BF
330
1F
100
AcDbEntity
  8
SLD-0
  6
Continuous
100
AcDbSpline
210
0.0
220
0.0
230
1.0
 70
     8
 71
     3
 72
     8
 73
     4
 74
     0
 42
0.000000001
 43
0.00000001
 40
0.0
 40
0.0
 40
0.0
 40
0.0
 40
1.0
 40
1.0
 40
1.0
 40
1.0
 10
220.377331518089
 20
40.03400788983152
 30
0.0
 10
219.733864518089
 20
39.32086738983153
 30
0.0
 10
219.006260518089
 20
38.42237788983152
 30
0.0
 10
219.006260518089
 20
37.29239538983152
 30
0.0
  0
SPLINE
  5
C0
330
1F
100
AcDbEntity
  8
SLD-0
  6
Continuous
100
AcDbSpline
210
0.0
220
0.0
230
1.0
 70
     8
 71
     3
 72
     8
 73
     4
 74
     0
 42
0.000000001
 43
0.00000001
 40
0.0
 40
0.0
 40
0.0
 40
0.0
 40
1.0
 40
1.0
 40
1.0
 40
1.0
 10
219.006260518089
 20
37.29239538983152
 30
0.0
 10
219.006260518089
 20
35.07238238983151
 30
0.0
 10
220.825200518089
 20
33.27272188983153
 30
0.0
 10
223.044525518089
 20
33.27272188983154
 30
0.0
  0
SPLINE
  5
C1
330
1F
100
AcDbEntity
  8
SLD-0
  6
Continuous
100
AcDbSpline
210
0.0
220
0.0
230
1.0
 70
     8
 71
     3
 72
     8
 73
     4
 74
     0
 42
0.000000001
 43
0.00000001
 40
0.0
 40
0.0
 40
0.0
 40
0.0
 40
1.0
 40
1.0
 40
1.0
 40
1.0
 10
223.044525518089
 20
33.27272188983154
 30
0.0
 10
225.265226018089
 20
33.27272188983153
 30
0.0
 10
227.064269518089
 20
35.07238238983155
 30
0.0
 10
227.064269518089
 20
37.29239538983155
 30
0.0
  0
SPLINE
  5
C2
330
1F
100
AcDbEntity
  8
SLD-0
  6
Continuous
100
AcDbSpline
210
0.0
220
0.0
230
1.0
 70
     8
 71
     3
 72
     8
 73
     4
 74
     0
 42
0.000000001
 43
0.00000001
 40
0.0
 40
0.0
 40
0.0
 40
0.0
 40
1.0
 40
1.0
 40
1.0
 40
1.0
 10
227.064269518089
 20
37.29239538983156
 30
0.0
 10
227.064269518089
 20
38.34314388983155
 30
0.0
 10
226.452341018089
 20
39.38777188983154
 30
0.0
 10
225.823338518089
 20
40.05274038983155
 30
0.0
  0
SPLINE
  5
C3
330
1F
100
AcDbEntity
  8
SLD-0
  6
Continuous
100
AcDbSpline
210
0.0
220
0.0
230
1.0
 70
     8
 71
     3
 72
     8
 73
     4
 74
     0
 42
0.000000001
 43
0.00000001
 40
0.0
 40
0.0
 40
0.0
 40
0.0
 40
1.0
 40
1.0
 40
1.0
 40
1.0
 10
223.2484135180889
 20
42.47932188983154
 30
0.0
 10
223.191969018089
 20
42.53382638983154
 30
0.0
 10
223.121766018089
 20
42.57173238983153
 30
0.0
 10
223.044525518089
 20
42.57173238983153
 30
0.0
  0
SPLINE
  5
C4
330
1F
100
AcDbEntity
  8
SLD-0
  6
Continuous
100
AcDbSpline
210
0.0
220
0.0
230
1.0
 70
     8
 71
     3
 72
     8
 73
     4
 74
     0
 42
0.000000001
 43
0.00000001
 40
0.0
 40
0.0
 40
0.0
 40
0.0
 40
1.0
 40
1.0
 40
1.0
 40
1.0
 10
226.730841518089
 20
43.46269038983152
 30
0.0
 10
226.764531518089
 20
43.46600638983153
 30
0.0
 10
226.796987518089
 20
43.47909438983154
 30
0.0
 10
226.8237985180889
 20
43.49922038983151
 30
0.0
  0
SPLINE
  5
C5
330
1F
100
AcDbEntity
  8
SLD-0
  6
Continuous
100
AcDbSpline
210
0.0
220
0.0
230
1.0
 70
     8
 71
     3
 72
     8
 73
     4
 74
     0
 42
0.000000001
 43
0.00000001
 40
0.0
 40
0.0
 40
0.0
 40
0.0
 40
1.0
 40
1.0
 40
1.0
 40
1.0
 10
226.8237985180889
 20
43.49922038983151
 30
0.0
 10
226.8368865180889
 20
43.50465288983153
 30
0.0
 10
226.849216018089
 20
43.51010338983155
 30
0.0
 10
226.861069518089
 20
43.51768838983157
 30
0.0
  0
SPLINE
  5
C6
330
1F
100
AcDbEntity
  8
SLD-0
  6
Continuous
100
AcDbSpline
210
0.0
220
0.0
230
1.0
 70
     8
 71
     3
 72
     8
 73
     4
 74
     0
 42
0.000000001
 43
0.00000001
 40
0.0
 40
0.0
 40
0.0
 40
0.0
 40
1.0
 40
1.0
 40
1.0
 40
1.0
 10
228.324550518089
 20
44.98122188983156
 30
0.0
 10
228.3747685180891
 20
45.03427988983157
 30
0.0
 10
228.390008518089
 20
45.11758838983157
 30
0.0
 10
228.361063018089
 20
45.18510988983156
 30
0.0
  0
SPLINE
  5
C7
330
1F
100
AcDbEntity
  8
SLD-0
  6
Continuous
100
AcDbSpline
210
0.0
220
0.0
230
1.0
 70
     8
 71
     3
 72
     8
 73
     4
 74
     0
 42
0.000000001
 43
0.00000001
 40
0.0
 40
0.0
 40
0.0
 40
0.0
 40
1.0
 40
1.0
 40
1.0
 40
1.0
 10
228.361063018089
 20
45.18510988983156
 30
0.0
 10
228.339014018089
 20
45.23961438983155
 30
0.0
 10
228.289272518089
 20
45.28233538983156
 30
0.0
 10
228.231399518089
 20
45.29604088983153
 30
0.0
  0
SPLINE
  5
C8
330
1F
100
AcDbEntity
  8
SLD-0
  6
Continuous
100
AcDbSpline
210
0.0
220
0.0
230
1.0
 70
     8
 71
     3
 72
     8
 73
     4
 74
     0
 42
0.000000001
 43
0.00000001
 40
-0.0000905348772979
 40
-0.0000905348772979
 40
-0.0000905348772979
 40
-0.0000905348772979
 40
1.000000000000139
 40
1.000000000000139
 40
1.000000000000139
 40
1.000000000000139
 10
228.2314234719728
 20
45.29603469525669
 30
0.0
 10
228.143222098936
 20
45.31884440829728
 30
0.0
 10
228.0488806271411
 20
45.33807482100391
 30
0.0
 10
227.953781018089
 20
45.33331188983156
 30
0.0
  0
SPLINE
  5
C9
330
1F
100
AcDbEntity
  8
SLD-0
  6
Continuous
100
AcDbSpline
210
0.0
220
0.0
230
1.0
 70
     8
 71
     3
 72
     8
 73
     4
 74
     0
 42
0.000000001
 43
0.00000001
 40
0.0
 40
0.0
 40
0.0
 40
0.0
 40
1.0
 40
1.0
 40
1.0
 40
1.0
 10
227.953781018089
 20
45.33331188983156
 30
0.0
 10
227.947589518089
 20
45.33331188983154
 30
0.0
 10
227.941451518089
 20
45.33399988983154
 30
0.0
 10
227.935242518089
 20
45.33331188983153
 30
0.0
  0
SPLINE
  5
CA
330
1F
100
AcDbEntity
  8
SLD-0
  6
Continuous
100
AcDbSpline
210
0.0
220
0.0
230
1.0
 70
     8
 71
     3
 72
     8
 73
     4
 74
     0
 42
0.000000001
 43
0.00000001
 40
0.0
 40
0.0
 40
0.0
 40
0.0
 40
1.0
 40
1.0
 40
1.0
 40
1.0
 10
219.191469018089
 20
45.33331188983153
 30
0.0
 10
217.229133518089
 20
45.33331188983151
 30
0.0
 10
215.616967018089
 20
43.72162888983151
 30
0.0
 10
215.616967018089
 20
41.75854438983151
 30
0.0
  0
SPLINE
  5
CB
330
1F
100
AcDbEntity
  8
SLD-0
  6
Continuous
100
AcDbSpline
210
0.0
220
0.0
230
1.0
 70
     8
 71
     3
 72
     8
 73
     4
 74
     0
 42
0.000000001
 43
0.00000001
 40
0.0
 40
0.0
 40
0.0
 40
0.0
 40
1.0
 40
1.0
 40
1.0
 40
1.0
 10
215.617656518089
 20
33.0149643898315
 30
0.0
 10
215.616967018089
 20
33.0088263898315
 30
0.0
 10
215.617656518089
 20
33.0033228898315
 30
0.0
 10
215.617656518089
 20
32.9971843898315
 30
0.0
  0
SPLINE
  5
CC
330
1F
100
AcDbEntity
  8
SLD-0
  6
Continuous
100
AcDbSpline
210
0.0
220
0.0
230
1.0
 70
     8
 71
     3
 72
     8
 73
     4
 74
     0
 42
0.000000001
 43
0.00000001
 40
0.0
 40
0.0
 40
0.0
 40
0.0
 40
1.0
 40
1.0
 40
1.0
 40
1.0
 10
215.617656518089
 20
32.9971843898315
 30
0.0
 10
215.612695518089
 20
32.9014053898315
 30
0.0
 10
215.632125518089
 20
32.8075663898315
 30
0.0
 10
215.654174518089
 20
32.71861388983152
 30
0.0
  0
SPLINE
  5
CD
330
1F
100
AcDbEntity
  8
SLD-0
  6
Continuous
100
AcDbSpline
210
0.0
220
0.0
230
1.0
 70
     8
 71
     3
 72
     8
 73
     4
 74
     0
 42
0.000000001
 43
0.00000001
 40
0.0
 40
0.0
 40
0.0
 40
0.0
 40
1.0
 40
1.0
 40
1.0
 40
1.0
 10
215.654174518089
 20
32.71861388983152
 30
0.0
 10
215.668643518089
 20
32.66149888983153
 30
0.0
 10
215.710605018089
 20
32.61195138983152
 30
0.0
 10
215.765658018089
 20
32.58921488983152
 30
0.0
  0
SPLINE
  5
CE
330
1F
100
AcDbEntity
  8
SLD-0
  6
Continuous
100
AcDbSpline
210
0.0
220
0.0
230
1.0
 70
     8
 71
     3
 72
     8
 73
     4
 74
     0
 42
0.000000001
 43
0.00000001
 40
0.0
 40
0.0
 40
0.0
 40
0.0
 40
1.0
 40
1.0
 40
1.0
 40
1.0
 10
215.765658018089
 20
32.58921488983152
 30
0.0
 10
215.832491518089
 20
32.56028688983152
 30
0.0
 10
215.916622018089
 20
32.57543888983152
 30
0.0
 10
215.969745018089
 20
32.62643288983151
 30
0.0
  0
SPLINE
  5
CF
330
1F
100
AcDbEntity
  8
SLD-0
  6
Continuous
100
AcDbSpline
210
0.0
220
0.0
230
1.0
 70
     8
 71
     3
 72
     8
 73
     4
 74
     0
 42
0.000000001
 43
0.00000001
 40
0.0
 40
0.0
 40
0.0
 40
0.0
 40
1.0
 40
1.0
 40
1.0
 40
1.0
 10
217.432536518089
 20
34.08989638983149
 30
0.0
 10
217.440103518089
 20
34.10153788983151
 30
0.0
 10
217.446242018089
 20
34.11407888983153
 30
0.0
 10
217.451075018089
 20
34.12711438983155
 30
0.0
  0
SPLINE
  5
D0
330
1F
100
AcDbEntity
  8
SLD-0
  6
Continuous
100
AcDbSpline
210
0.0
220
0.0
230
1.0
 70
     8
 71
     3
 72
     8
 73
     4
 74
     0
 42
0.000000001
 43
0.00000001
 40
0.0
 40
0.0
 40
0.0
 40
0.0
 40
1.0
 40
1.0
 40
1.0
 40
1.0
 10
217.451075018089
 20
34.12711438983155
 30
0.0
 10
217.471677018089
 20
34.15321988983153
 30
0.0
 10
217.484906518089
 20
34.18567538983152
 30
0.0
 10
217.488275518089
 20
34.21936538983149
 30
0.0
  0
SPLINE
  5
D1
330
1F
100
AcDbEntity
  8
SLD-0
  6
Continuous
100
AcDbSpline
210
0.0
220
0.0
230
1.0
 70
     8
 71
     3
 72
     8
 73
     4
 74
     0
 42
0.000000001
 43
0.00000001
 40
0.0
 40
0.0
 40
0.0
 40
0.0
 40
1.0
 40
1.0
 40
1.0
 40
1.0
 10
217.487587518089
 20
41.75854438983149
 30
0.0
 10
217.487587518089
 20
42.7206218898315
 30
0.0
 10
218.228209018089
 20
43.46269038983153
 30
0.0
 10
219.191469018089
 20
43.46269038983151
 30
0.0
  0
SPLINE
  5
D2
330
1F
100
AcDbEntity
  8
SLD-0
  6
Continuous
100
AcDbSpline
210
0.0
220
0.0
230
1.0
 70
     8
 71
     3
 72
     8
 73
     4
 74
     0
 42
0.000000001
 43
0.00000001
 40
0.0
 40
0.0
 40
0.0
 40
0.0
 40
1.0
 40
1.0
 40
1.0
 40
1.0
 10
219.340358518089
 20
32.36514788983155
 30
0.0
 10
219.306668518089
 20
32.36109088983155
 30
0.0
 10
219.2742130180891
 20
32.34805588983153
 30
0.0
 10
219.247401518089
 20
32.32814138983154
 30
0.0
  0
SPLINE
  5
D3
330
1F
100
AcDbEntity
  8
SLD-0
  6
Continuous
100
AcDbSpline
210
0.0
220
0.0
230
1.0
 70
     8
 71
     3
 72
     8
 73
     4
 74
     0
 42
0.000000001
 43
0.00000001
 40
0.0
 40
0.0
 40
0.0
 40
0.0
 40
1.0
 40
1.0
 40
1.0
 40
1.0
 10
219.247401518089
 20
32.32814138983154
 30
0.0
 10
219.234313518089
 20
32.32318488983154
 30
0.0
 10
219.221772518089
 20
32.31699388983154
 30
0.0
 10
219.2101310180891
 20
32.30940888983153
 30
0.0
  0
SPLINE
  5
D4
330
1F
100
AcDbEntity
  8
SLD-0
  6
Continuous
100
AcDbSpline
210
0.0
220
0.0
230
1.0
 70
     8
 71
     3
 72
     8
 73
     4
 74
     0
 42
0.000000001
 43
0.00000001
 40
0.0
 40
0.0
 40
0.0
 40
0.0
 40
1.0
 40
1.0
 40
1.0
 40
1.0
 10
217.746650018089
 20
30.84593138983149
 30
0.0
 10
217.696432018089
 20
30.79280688983149
 30
0.0
 10
217.681192018089
 20
30.70957438983149
 30
0.0
 10
217.710137518089
 20
30.64205088983149
 30
0.0
  0
SPLINE
  5
D5
330
1F
100
AcDbEntity
  8
SLD-0
  6
Continuous
100
AcDbSpline
210
0.0
220
0.0
230
1.0
 70
     8
 71
     3
 72
     8
 73
     4
 74
     0
 42
0.000000001
 43
0.00000001
 40
0.0
 40
0.0
 40
0.0
 40
0.0
 40
1.0
 40
1.0
 40
1.0
 40
1.0
 10
217.710137518089
 20
30.64205088983149
 30
0.0
 10
217.732186018089
 20
30.58754838983152
 30
0.0
 10
217.782492018089
 20
30.54482888983151
 30
0.0
 10
217.839606518089
 20
30.53104938983151
 30
0.0
  0
SPLINE
  5
D6
330
1F
100
AcDbEntity
  8
SLD-0
  6
Continuous
100
AcDbSpline
210
0.0
220
0.0
230
1.0
 70
     8
 71
     3
 72
     8
 73
     4
 74
     0
 42
0.000000001
 43
0.00000001
 40
0.0
 40
0.0
 40
0.0
 40
0.0
 40
1.0
 40
1.0
 40
1.0
 40
1.0
 10
217.839606518089
 20
30.53104938983151
 30
0.0
 10
217.927801018089
 20
30.50831088983152
 30
0.0
 10
218.022187018089
 20
30.48908788983151
 30
0.0
 10
218.117278018089
 20
30.4938418898315
 30
0.0
  0
SPLINE
  5
D7
330
1F
100
AcDbEntity
  8
SLD-0
  6
Continuous
100
AcDbSpline
210
0.0
220
0.0
230
1.0
 70
     8
 71
     3
 72
     8
 73
     4
 74
     0
 42
0.000000001
 43
0.00000001
 40
0.0
 40
0.0
 40
0.0
 40
0.0
 40
1.0
 40
1.0
 40
1.0
 40
1.0
 10
218.117278018089
 20
30.4938418898315
 30
0.0
 10
218.123610518089
 20
30.49460038983151
 30
0.0
 10
218.129749018089
 20
30.49384188983152
 30
0.0
 10
218.135957518089
 20
30.4938418898315
 30
0.0
  0
SPLINE
  5
D8
330
1F
100
AcDbEntity
  8
SLD-0
  6
Continuous
100
AcDbSpline
210
0.0
220
0.0
230
1.0
 70
     8
 71
     3
 72
     8
 73
     4
 74
     0
 42
0.000000001
 43
0.00000001
 40
0.0
 40
0.0
 40
0.0
 40
0.0
 40
1.0
 40
1.0
 40
1.0
 40
1.0
 10
226.879537518089
 20
30.4938418898315
 30
0.0
 10
228.841863518089
 20
30.49384188983153
 30
0.0
 10
230.4549930180891
 20
32.10620888983155
 30
0.0
 10
230.454234518089
 20
34.06922338983155
 30
0.0
  0
SPLINE
  5
D9
330
1F
100
AcDbEntity
  8
SLD-0
  6
Continuous
100
AcDbSpline
210
0.0
220
0.0
230
1.0
 70
     8
 71
     3
 72
     8
 73
     4
 74
     0
 42
0.000000001
 43
0.00000001
 40
0.0
 40
0.0
 40
0.0
 40
0.0
 40
1.0
 40
1.0
 40
1.0
 40
1.0
 10
230.453546518089
 20
42.81213288983156
 30
0.0
 10
230.4542345180891
 20
42.81832388983158
 30
0.0
 10
230.453546518089
 20
42.82453288983155
 30
0.0
 10
230.4535465180891
 20
42.83086538983157
 30
0.0
  0
SPLINE
  5
DA
330
1F
100
AcDbEntity
  8
SLD-0
  6
Continuous
100
AcDbSpline
210
0.0
220
0.0
230
1.0
 70
     8
 71
     3
 72
     8
 73
     4
 74
     0
 42
0.000000001
 43
0.00000001
 40
0.0
 40
0.0
 40
0.0
 40
0.0
 40
1.0
 40
1.0
 40
1.0
 40
1.0
 10
230.4535465180891
 20
42.83086538983157
 30
0.0
 10
230.458309018089
 20
42.92595638983155
 30
0.0
 10
230.439082518089
 20
43.02027138983157
 30
0.0
 10
230.4163460180891
 20
43.10846588983156
 30
0.0
  0
SPLINE
  5
DB
330
1F
100
AcDbEntity
  8
SLD-0
  6
Continuous
100
AcDbSpline
210
0.0
220
0.0
230
1.0
 70
     8
 71
     3
 72
     8
 73
     4
 74
     0
 42
0.000000001
 43
0.00000001
 40
0.0
 40
0.0
 40
0.0
 40
0.0
 40
1.0
 40
1.0
 40
1.0
 40
1.0
 10
230.4163460180891
 20
43.10846588983156
 30
0.0
 10
230.402552518089
 20
43.16566888983156
 30
0.0
 10
230.359901518089
 20
43.21588688983157
 30
0.0
 10
230.305415018089
 20
43.23793538983156
 30
0.0
  0
SPLINE
  5
DC
330
1F
100
AcDbEntity
  8
SLD-0
  6
Continuous
100
AcDbSpline
210
0.0
220
0.0
230
1.0
 70
     8
 71
     3
 72
     8
 73
     4
 74
     0
 42
0.000000001
 43
0.00000001
 40
0.0
 40
0.0
 40
0.0
 40
0.0
 40
1.0
 40
1.0
 40
1.0
 40
1.0
 10
230.305415018089
 20
43.23793538983156
 30
0.0
 10
230.237823018089
 20
43.26688088983156
 30
0.0
 10
230.154585018089
 20
43.25171138983156
 30
0.0
 10
230.1014565180891
 20
43.20073488983154
 30
0.0
  0
SPLINE
  5
DD
330
1F
100
AcDbEntity
  8
SLD-0
  6
Continuous
100
AcDbSpline
210
0.0
220
0.0
230
1.0
 70
     8
 71
     3
 72
     8
 73
     4
 74
     0
 42
0.000000001
 43
0.00000001
 40
0.0
 40
0.0
 40
0.0
 40
0.0
 40
1.0
 40
1.0
 40
1.0
 40
1.0
 10
228.637976018089
 20
41.73725388983154
 30
0.0
 10
228.630408518089
 20
41.72630038983155
 30
0.0
 10
228.6242000180891
 20
41.71328288983155
 30
0.0
 10
228.6194550180891
 20
41.70074138983155
 30
0.0
  0
SPLINE
  5
DE
330
1F
100
AcDbEntity
  8
SLD-0
  6
Continuous
100
AcDbSpline
210
0.0
220
0.0
230
1.0
 70
     8
 71
     3
 72
     8
 73
     4
 74
     0
 42
0.000000001
 43
0.00000001
 40
0.0
 40
0.0
 40
0.0
 40
0.0
 40
1.0
 40
1.0
 40
1.0
 40
1.0
 10
228.6194550180891
 20
41.70074138983155
 30
0.0
 10
228.599329018089
 20
41.67393038983155
 30
0.0
 10
228.586311518089
 20
41.64147488983155
 30
0.0
 10
228.582925018089
 20
41.60778438983154
 30
0.0
  0
SPLINE
  5
DF
330
1F
100
AcDbEntity
  8
SLD-0
  6
Continuous
100
AcDbSpline
210
0.0
220
0.0
230
1.0
 70
     8
 71
     3
 72
     8
 73
     4
 74
     0
 42
0.000000001
 43
0.00000001
 40
0.0
 40
0.0
 40
0.0
 40
0.0
 40
1.0
 40
1.0
 40
1.0
 40
1.0
 10
228.583471518089
 20
34.06922338983155
 30
0.0
 10
228.584177018089
 20
33.10673988983155
 30
0.0
 10
227.842779518089
 20
32.36514788983155
 30
0.0
 10
226.879537518089
 20
32.36514788983155
 30
0.0
  0
INSERT
  5
E0
330
1F
100
AcDbEntity
  8
0
  6
Continuous
 62
     7
100
AcDbBlockReference
  2
Block4
 10
-59.8363409266
 20
2.9380348901
 30
0.0
 41
0.5
 42
0.5
 43
0.5
  0
INSERT
  5
F1
330
1F
100
AcDbEntity
  8
FORMAT
100
AcDbBlockReference
  2
SW_NOTE_1
 10
18.6550515464
 20
193.1880984953
 30
0.0
  0
MTEXT
  5
F2
330
1F
100
AcDbEntity
  8
FORMAT
100
AcDbMText
 10
269.9656446255
 20
18.3799305587
 30
0.0
 40
3.7041666667
 41
0.0
 71
     2
 72
     1
  1
00-000
  7
SLDTEXTSTYLE1
 73
     1
 44
1.0
  0
MTEXT
  5
F3
330
1F
100
AcDbEntity
  8
FORMAT
100
AcDbMText
 10
193.0788407034
 20
17.0641267953
 30
0.0
 40
2.38125
 41
0.0
 71
     3
 72
     1
  1
R. JONES
  7
SLDTEXTSTYLE1
 73
     1
 44
1.0
  0
MTEXT
  5
F4
330
1F
100
AcDbEntity
  8
FORMAT
100
AcDbMText
 10
193.0788407034
 20
11.1941267953
 30
0.0
 40
2.38125
 41
0.0
 71
     3
 72
     1
  1
R. JONES
  7
SLDTEXTSTYLE1
 73
     1
 44
1.0
  0
MTEXT
  5
F5
330
1F
100
AcDbEntity
  8
FORMAT
100
AcDbMText
 10
160.4843414798
 20
23.1841266789
 30
0.0
 40
2.38125
 41
0.0
 71
     1
 72
     1
  1
ENG.:
  7
SLDTEXTSTYLE1
 73
     1
 44
1.0
  0
MTEXT
  5
F6
330
1F
100
AcDbEntity
  8
FORMAT
100
AcDbMText
 10
160.6093414798
 20
11.1941266789
 30
0.0
 40
2.38125
 41
0.0
 71
     1
 72
     1
  1
APPR.:
  7
SLDTEXTSTYLE1
 73
     1
 44
1.0
  0
MTEXT
  5
F7
330
1F
100
AcDbEntity
  8
FORMAT
100
AcDbMText
 10
160.6093414798
 20
17.0641266789
 30
0.0
 40
2.38125
 41
0.0
 71
     1
 72
     1
  1
DRAFT:
  7
SLDTEXTSTYLE1
 73
     1
 44
1.0
  0
MTEXT
  5
F8
330
1F
100
AcDbEntity
  8
FORMAT
100
AcDbMText
 10
204.6118097378
 20
11.1941267953
 30
0.0
 40
2.38125
 41
0.0
 71
     2
 72
     1
  1
17/03/15
  7
SLDTEXTSTYLE1
 73
     1
 44
1.0
  0
MTEXT
  5
F9
330
1F
100
AcDbEntity
  8
FORMAT
100
AcDbMText
 10
204.6885114931
 20
17.0641267953
 30
0.0
 40
2.38125
 41
0.0
 71
     2
 72
     1
  1
17/03/15
  7
SLDTEXTSTYLE1
 73
     1
 44
1.0
  0
MTEXT
  5
FA
330
1F
100
AcDbEntity
  8
FORMAT
100
AcDbMText
 10
133.8065784465
 20
36.7630447226
 30
0.0
 40
2.286
 41
0.0
 71
     1
 72
     1
  1
MATERIAL:
  7
SLDTEXTSTYLE1
 73
     1
 44
1.0
  0
MTEXT
  5
FB
330
1F
100
AcDbEntity
  8
FORMAT
100
AcDbMText
 10
133.9214003174
 20
27.4724670151
 30
0.0
 40
2.286
 41
0.0
 71
     1
 72
     1
  1
FINISH:
  7
SLDTEXTSTYLE1
 73
     1
 44
1.0
  0
MTEXT
  5
FC
330
1F
100
AcDbEntity
  8
FORMAT
100
AcDbMText
 10
142.1963464452
 20
32.7522091085
 30
0.0
 40
2.6458333333
 41
0.0
 71
     1
 72
     1
  1
SEE NOTES
  7
SLDTEXTSTYLE1
 73
     1
 44
1.0
  0
MTEXT
  5
FD
330
1F
100
AcDbEntity
  8
FORMAT
100
AcDbMText
 10
142.2540431873
 20
24.3488195094
 30
0.0
 40
2.6458333333
 41
0.0
 71
     1
 72
     1
  1
SEE NOTES
  7
SLDTEXTSTYLE1
 73
     1
 44
1.0
  0
INSERT
  5
110
330
1F
100
AcDbEntity
  8
FORMAT
100
AcDbBlockReference
  2
SW_NOTE_2
 10
160.7507720905
 20
43.1638883371
 30
0.0
  0
MTEXT
  5
111
330
1F
100
AcDbEntity
  8
FORMAT
100
AcDbMText
 10
221.2990434437
 20
18.3799304423
 30
0.0
 40
3.7041666667
 41
0.0
 71
     2
 72
     1
  1
A4
  7
SLDTEXTSTYLE1
 73
     1
 44
1.0
  0
MTEXT
  5
112
330
1F
100
AcDbEntity
  8
FORMAT
100
AcDbMText
 10
220.5430327217
 20
11.30829239
 30
0.0
 40
3.175
 41
0.0
 71
     1
 72
     1
  1
SCALE:
  7
SLDTEXTSTYLE1
 73
     1
 44
1.0
  0
MTEXT
  5
113
330
1F
100
AcDbEntity
  8
FORMAT
100
AcDbMText
 10
253.9605636903
 20
27.3053923966
 30
0.0
 40
2.9104166667
 41
0.0
 71
     2
 72
     1
  1
HOT END CONNECTOR ENCLOSURE
  7
SLDTEXTSTYLE1
 73
     1
 44
1.0
  0
MTEXT
  5
114
330
1F
100
AcDbEntity
  8
FORMAT
100
AcDbMText
 10
215.3809726231
 20
21.1463717695
 30
0.0
 40
1.524
 41
0.0
 71
     1
 72
     1
  1
SIZE
  7
SLDTEXTSTYLE1
 73
     1
 44
1.0
  0
MTEXT
  5
115
330
1F
100
AcDbEntity
  8
FORMAT
100
AcDbMText
 10
230.0349280152
 20
21.1463717695
 30
0.0
 40
1.524
 41
0.0
 71
     1
 72
     1
  1
DWG NO.
  7
SLDTEXTSTYLE1
 73
     1
 44
1.0
  0
MTEXT
  5
116
330
1F
100
AcDbEntity
  8
FORMAT
100
AcDbMText
 10
252.8182963314
 20
21.1463717695
 30
0.0
 40
1.524
 41
0.0
 71
     1
 72
     1
  1
REV
  7
SLDTEXTSTYLE1
 73
     1
 44
1.0
  0
MTEXT
  5
118
330
1F
100
AcDbEntity
  8
FORMAT
100
AcDbMText
 10
258.1190108038
 20
11.1902367763
 30
0.0
 40
3.175
 41
0.0
 71
     1
 72
     1
  1
SHEET  1 OF 1
  7
SLDTEXTSTYLE3
 73
     1
 44
1.0
  0
MTEXT
  5
119
330
1F
100
AcDbEntity
  8
FORMAT
100
AcDbMText
 10
233.9665421891
 20
37.754267002
 30
0.0
 40
1.5875
 41
0.0
 71
     1
 72
     1
  1
PROJECT:
  7
SLDTEXTSTYLE1
 73
     1
 44
1.0
  0
MTEXT
  5
11A
330
1F
100
AcDbEntity
  8
FORMAT
100
AcDbMText
 10
260.4190614506
 20
33.5623249766
 30
0.0
 40
2.9104166667
 41
0.0
 71
     2
 72
     1
  1
DUAL HOT END
  7
SLDTEXTSTYLE1
 73
     1
 44
1.0
  0
MTEXT
  5
11B
330
1F
100
AcDbEntity
  8
FORMAT
100
AcDbMText
 10
238.4500327217
 20
11.1902368927
 30
0.0
 40
3.175
 41
0.0
 71
     1
 72
     1
  1
1:1
  7
SLDTEXTSTYLE1
 73
     1
 44
1.0
  0
MTEXT
  5
11C
330
1F
100
AcDbEntity
  8
FORMAT
100
AcDbMText
 10
251.9352825697
 20
6.3426007865
 30
0.0
 40
3.5
 41
0.0
 71
     1
 72
     1
  1
1
  7
SLDTEXTSTYLE1
 73
     1
 44
1.0
  0
MTEXT
  5
11D
330
1F
100
AcDbEntity
  8
FORMAT
100
AcDbMText
 10
181.9352825697
 20
6.3426007865
 30
0.0
 40
3.5
 41
0.0
 71
     1
 72
     1
  1
2
  7
SLDTEXTSTYLE1
 73
     1
 44
1.0
  0
MTEXT
  5
11E
330
1F
100
AcDbEntity
  8
FORMAT
100
AcDbMText
 10
41.9352825697
 20
6.5436007865
 30
0.0
 40
3.5
 41
0.0
 71
     1
 72
     1
  1
4
  7
SLDTEXTSTYLE1
 73
     1
 44
1.0
  0
MTEXT
  5
11F
330
1F
100
AcDbEntity
  8
FORMAT
100
AcDbMText
 10
251.9352825697
 20
207.3426007865
 30
0.0
 40
3.5
 41
0.0
 71
     1
 72
     1
  1
1
  7
SLDTEXTSTYLE1
 73
     1
 44
1.0
  0
MTEXT
  5
120
330
1F
100
AcDbEntity
  8
FORMAT
100
AcDbMText
 10
181.9352825697
 20
207.3426007865
 30
0.0
 40
3.5
 41
0.0
 71
     1
 72
     1
  1
2
  7
SLDTEXTSTYLE1
 73
     1
 44
1.0
  0
MTEXT
  5
121
330
1F
100
AcDbEntity
  8
FORMAT
100
AcDbMText
 10
111.9352825697
 20
207.3426007865
 30
0.0
 40
3.5
 41
0.0
 71
     1
 72
     1
  1
3
  7
SLDTEXTSTYLE1
 73
     1
 44
1.0
  0
MTEXT
  5
122
330
1F
100
AcDbEntity
  8
FORMAT
100
AcDbMText
 10
41.9352825697
 20
207.5436007865
 30
0.0
 40
3.5
 41
0.0
 71
     1
 72
     1
  1
4
  7
SLDTEXTSTYLE1
 73
     1
 44
1.0
  0
MTEXT
  5
123
330
1F
100
AcDbEntity
  8
FORMAT
100
AcDbMText
 10
4.9122514154
 20
33.4023261696
 30
0.0
 40
3.5
 41
0.0
 71
     1
 72
     1
  1
A
  7
SLDTEXTSTYLE1
 73
     1
 44
1.0
  0
MTEXT
  5
124
330
1F
100
AcDbEntity
  8
FORMAT
100
AcDbMText
 10
289.9122514154
 20
180.4023261696
 30
0.0
 40
3.5
 41
0.0
 71
     1
 72
     1
  1
D
  7
SLDTEXTSTYLE1
 73
     1
 44
1.0
  0
MTEXT
  5
125
330
1F
100
AcDbEntity
  8
FORMAT
100
AcDbMText
 10
289.9122514154
 20
131.4023261696
 30
0.0
 40
3.5
 41
0.0
 71
     1
 72
     1
  1
C
  7
SLDTEXTSTYLE1
 73
     1
 44
1.0
  0
MTEXT
  5
126
330
1F
100
AcDbEntity
  8
FORMAT
100
AcDbMText
 10
289.9122514154
 20
82.4023261696
 30
0.0
 40
3.5
 41
0.0
 71
     1
 72
     1
  1
B
  7
SLDTEXTSTYLE1
 73
     1
 44
1.0
  0
MTEXT
  5
127
330
1F
100
AcDbEntity
  8
FORMAT
100
AcDbMText
 10
289.9122514154
 20
33.4023261696
 30
0.0
 40
3.5
 41
0.0
 71
     1
 72
     1
  1
A
  7
SLDTEXTSTYLE1
 73
     1
 44
1.0
  0
MTEXT
  5
128
330
1F
100
AcDbEntity
  8
FORMAT
100
AcDbMText
 10
4.9122514154
 20
180.4023261696
 30
0.0
 40
3.5
 41
0.0
 71
     1
 72
     1
  1
D
  7
SLDTEXTSTYLE1
 73
     1
 44
1.0
  0
MTEXT
  5
129
330
1F
100
AcDbEntity
  8
FORMAT
100
AcDbMText
 10
4.9122514154
 20
131.4023261696
 30
0.0
 40
3.5
 41
0.0
 71
     1
 72
     1
  1
C
  7
SLDTEXTSTYLE1
 73
     1
 44
1.0
  0
MTEXT
  5
12A
330
1F
100
AcDbEntity
  8
FORMAT
100
AcDbMText
 10
4.9122514154
 20
82.4023261696
 30
0.0
 40
3.5
 41
0.0
 71
     1
 72
     1
  1
B
  7
SLDTEXTSTYLE1
 73
     1
 44
1.0
  0
MTEXT
  5
12B
330
1F
100
AcDbEntity
  8
FORMAT
100
AcDbMText
 10
133.8065784465
 20
45.2367108628
 30
0.0
 40
2.286
 41
0.0
 71
     1
 72
     1
  1
MASS:
  7
SLDTEXTSTYLE1
 73
     1
 44
1.0
  0
MTEXT
  5
12C
330
1F
100
AcDbEntity
  8
FORMAT
100
AcDbMText
 10
142.1963464452
 20
42.0983845926
 30
0.0
 40
2.6458333333
 41
0.0
 71
     1
 72
     1
  1
SEE NOTES
  7
SLDTEXTSTYLE1
 73
     1
 44
1.0
  0
MTEXT
  5
12D
330
1F
100
AcDbEntity
  8
FORMAT
100
AcDbMText
 10
239.4888004842
 20
18.3799305587
 30
0.0
 40
3.7041666667
 41
0.0
 71
     2
 72
     1
  1
891
  7
SLDTEXTSTYLE1
 73
     1
 44
1.0
  0
MTEXT
  5
12E
330
1F
100
AcDbEntity
  8
FORMAT
100
AcDbMText
 10
204.4534191326
 20
23.4589994354
 30
0.0
 40
2.38125
 41
0.0
 71
     2
 72
     1
  1
20/10/14
  7
SLDTEXTSTYLE1
 73
     1
 44
1.0
  0
MTEXT
  5
12F
330
1F
100
AcDbEntity
  8
FORMAT
100
AcDbMText
 10
192.4972781501
 20
23.4589994354
 30
0.0
 40
2.38125
 41
0.0
 71
     3
 72
     1
  1
R. JONES
  7
SLDTEXTSTYLE1
 73
     1
 44
1.0
  0
MTEXT
  5
130
330
1F
100
AcDbEntity
  8
FORMAT
100
AcDbMText
 10
261.4335437253
 20
44.6960050705
 30
0.0
 40
2.6458333333
 41
0.0
 71
     2
 72
     1
  1
RepRap Pro
  7
SLDTEXTSTYLE1
 73
     1
 44
1.0
  0
INSERT
  5
145
330
1F
100
AcDbEntity
  8
DIMENSIONS
100
AcDbBlockReference
  2
SW_TABLEANNOTATION_0
 10
8.4890956785
 20
21.1577321834
 30
0.0
  0
LINE
  5
146
330
1F
100
AcDbEntity
  8
0
  6
CENTERX2
 62
     7
100
AcDbLine
 10
213.0227552141
 20
114.33
 30
0.0
 11
213.0227552141
 21
154.33
 31
0.0
  0
LINE
  5
147
330
1F
100
AcDbEntity
  8
0
  6
CENTERX2
 62
     7
100
AcDbLine
 10
187.7227552141
 20
114.33
 30
0.0
 11
187.7227552141
 21
140.33
 31
0.0
  0
LINE
  5
148
330
1F
100
AcDbEntity
  8
0
  6
CENTERX2
 62
     7
100
AcDbLine
 10
212.6227552141
 20
154.73
 30
0.0
 11
188.1227552141
 21
154.73
 31
0.0
  0
CIRCLE
  5
149
330
1F
100
AcDbEntity
  8
0
  6
Continuous
 62
     7
370
    15
100
AcDbCircle
 10
172.5227552141
 20
118.33
 30
0.0
 40
1.700000000000017
  0
CIRCLE
  5
14A
330
1F
100
AcDbEntity
  8
0
  6
Continuous
 62
     7
370
    15
100
AcDbCircle
 10
172.5227552141
 20
150.33
 30
0.0
 40
1.700000000000017
  0
LINE
  5
14B
330
1F
100
AcDbEntity
  8
0
  6
Continuous
 62
     7
370
    15
100
AcDbLine
 10
202.8727552141
 20
108.33
 30
0.0
 11
197.8727552141
 21
108.33
 31
0.0
  0
LINE
  5
14C
330
1F
100
AcDbEntity
  8
0
  6
Continuous
 62
     7
370
    15
100
AcDbLine
 10
197.8727552141
 20
108.33
 30
0.0
 11
197.8727552141
 21
105.33
 31
0.0
  0
LINE
  5
14D
330
1F
100
AcDbEntity
  8
0
  6
Continuous
 62
     7
370
    15
100
AcDbLine
 10
197.8727552141
 20
105.33
 30
0.0
 11
202.8727552141
 21
105.33
 31
0.0
  0
LINE
  5
14E
330
1F
100
AcDbEntity
  8
0
  6
Continuous
 62
     7
370
    15
100
AcDbLine
 10
202.8727552141
 20
105.33
 30
0.0
 11
202.8727552141
 21
108.33
 31
0.0
  0
ARC
  5
14F
330
1F
100
AcDbEntity
  8
0
  6
Continuous
 62
     7
370
    15
100
AcDbCircle
 10
189.1227552141
 20
103.33
 30
0.0
 40
1.000000000000014
100
AcDbArc
 50
180.0
 51
270.0
  0
LINE
  5
150
330
1F
100
AcDbEntity
  8
0
  6
Continuous
 62
     7
370
    15
100
AcDbLine
 10
188.1227552141
 20
105.33
 30
0.0
 11
188.1227552141
 21
103.33
 31
0.0
  0
LINE
  5
151
330
1F
100
AcDbEntity
  8
0
  6
Continuous
 62
     7
370
    15
100
AcDbLine
 10
189.6227552141
 20
105.33
 30
0.0
 11
188.1227552141
 21
105.33
 31
0.0
  0
LINE
  5
152
330
1F
100
AcDbEntity
  8
0
  6
Continuous
 62
     7
370
    15
100
AcDbLine
 10
189.6227552141
 20
108.33
 30
0.0
 11
189.6227552141
 21
105.33
 31
0.0
  0
LINE
  5
153
330
1F
100
AcDbEntity
  8
0
  6
Continuous
 62
     7
370
    15
100
AcDbLine
 10
188.1227552141
 20
108.33
 30
0.0
 11
189.6227552141
 21
108.33
 31
0.0
  0
LINE
  5
154
330
1F
100
AcDbEntity
  8
0
  6
Continuous
 62
     7
370
    15
100
AcDbLine
 10
188.1227552141
 20
114.33
 30
0.0
 11
188.1227552141
 21
108.33
 31
0.0
  0
LINE
  5
155
330
1F
100
AcDbEntity
  8
0
  6
Continuous
 62
     7
370
    15
100
AcDbLine
 10
171.5227552141
 20
114.33
 30
0.0
 11
188.1227552141
 21
114.33
 31
0.0
  0
ARC
  5
156
330
1F
100
AcDbEntity
  8
0
  6
Continuous
 62
     7
370
    15
100
AcDbCircle
 10
171.5227552141
 20
117.33
 30
0.0
 40
3.0
100
AcDbArc
 50
180.0
 51
270.0
  0
LINE
  5
157
330
1F
100
AcDbEntity
  8
0
  6
Continuous
 62
     7
370
    15
100
AcDbLine
 10
168.5227552141
 20
119.1313158464
 30
0.0
 11
168.5227552141
 21
117.33
 31
0.0
  0
ARC
  5
158
330
1F
100
AcDbEntity
  8
0
  6
Continuous
 62
     7
370
    15
100
AcDbCircle
 10
169.5227552141
 20
119.1313158464
 30
0.0
 40
1.0
100
AcDbArc
 50
130.5416018735
 51
180.0
  0
ARC
  5
159
330
1F
100
AcDbEntity
  8
0
  6
Continuous
 62
     7
370
    15
100
AcDbCircle
 10
156.5227552141
 20
134.33
 30
0.0
 40
19.00000000000007
100
AcDbArc
 50
310.5416018735
 51
49.4583981265
  0
ARC
  5
15A
330
1F
100
AcDbEntity
  8
0
  6
Continuous
 62
     7
370
    15
100
AcDbCircle
 10
169.5227552141
 20
149.5286841536
 30
0.0
 40
1.0
100
AcDbArc
 50
180.0
 51
229.4583981265
  0
LINE
  5
15B
330
1F
100
AcDbEntity
  8
0
  6
Continuous
 62
     7
370
    15
100
AcDbLine
 10
168.5227552141
 20
151.33
 30
0.0
 11
168.5227552141
 21
149.5286841536
 31
0.0
  0
ARC
  5
15C
330
1F
100
AcDbEntity
  8
0
  6
Continuous
 62
     7
370
    15
100
AcDbCircle
 10
171.5227552141
 20
151.33
 30
0.0
 40
3.0
100
AcDbArc
 50
90.0
 51
180.0
  0
LINE
  5
15D
330
1F
100
AcDbEntity
  8
0
  6
Continuous
 62
     7
370
    15
100
AcDbLine
 10
177.3300561324
 20
154.33
 30
0.0
 11
171.5227552141
 21
154.33
 31
0.0
  0
ARC
  5
15E
330
1F
100
AcDbEntity
  8
0
  6
Continuous
 62
     7
370
    15
100
AcDbCircle
 10
177.3300561324
 20
152.33
 30
0.0
 40
2.0
100
AcDbArc
 50
0.0
 51
90.0
  0
LINE
  5
15F
330
1F
100
AcDbEntity
  8
0
  6
Continuous
 62
     7
370
    15
100
AcDbLine
 10
179.3300561324
 20
152.33
 30
0.0
 11
179.3300561324
 21
142.33
 31
0.0
  0
ARC
  5
160
330
1F
100
AcDbEntity
  8
0
  6
Continuous
 62
     7
370
    15
100
AcDbCircle
 10
181.3300561324
 20
142.33
 30
0.0
 40
2.0
100
AcDbArc
 50
180.0
 51
270.0
  0
LINE
  5
161
330
1F
100
AcDbEntity
  8
0
  6
Continuous
 62
     7
370
    15
100
AcDbLine
 10
181.3300561324
 20
140.33
 30
0.0
 11
188.1154542957
 21
140.33
 31
0.0
  0
LINE
  5
162
330
1F
100
AcDbEntity
  8
0
  6
Continuous
 62
     7
370
    15
100
AcDbLine
 10
188.1154542957
 20
154.33
 30
0.0
 11
188.1154542957
 21
140.33
 31
0.0
  0
LINE
  5
163
330
1F
100
AcDbEntity
  8
0
  6
Continuous
 62
     7
370
    15
100
AcDbLine
 10
188.1227552141
 20
154.33
 30
0.0
 11
188.1154542957
 21
154.33
 31
0.0
  0
LINE
  5
164
330
1F
100
AcDbEntity
  8
0
  6
Continuous
 62
     7
370
    15
100
AcDbLine
 10
188.1227552141
 20
165.83
 30
0.0
 11
188.1227552141
 21
154.33
 31
0.0
  0
ARC
  5
165
330
1F
100
AcDbEntity
  8
0
  6
Continuous
 62
     7
370
    15
100
AcDbCircle
 10
189.1227552141
 20
165.83
 30
0.0
 40
1.0
100
AcDbArc
 50
90.0
 51
180.0
  0
LINE
  5
166
330
1F
100
AcDbEntity
  8
0
  6
Continuous
 62
     7
370
    15
100
AcDbLine
 10
211.6227552141
 20
166.83
 30
0.0
 11
189.1227552141
 21
166.83
 31
0.0
  0
ARC
  5
167
330
1F
100
AcDbEntity
  8
0
  6
Continuous
 62
     7
370
    15
100
AcDbCircle
 10
211.6227552141
 20
165.83
 30
0.0
 40
1.0
100
AcDbArc
 50
0.0
 51
90.0
  0
LINE
  5
168
330
1F
100
AcDbEntity
  8
0
  6
Continuous
 62
     7
370
    15
100
AcDbLine
 10
212.6227552141
 20
154.33
 30
0.0
 11
212.6227552141
 21
165.83
 31
0.0
  0
LINE
  5
169
330
1F
100
AcDbEntity
  8
0
  6
Continuous
 62
     7
370
    15
100
AcDbLine
 10
216.6227552141
 20
154.33
 30
0.0
 11
212.6227552141
 21
154.33
 31
0.0
  0
ARC
  5
16A
330
1F
100
AcDbEntity
  8
0
  6
Continuous
 62
     7
370
    15
100
AcDbCircle
 10
216.6227552141
 20
153.33
 30
0.0
 40
1.0
100
AcDbArc
 50
0.0
 51
90.0
  0
LINE
  5
16B
330
1F
100
AcDbEntity
  8
0
  6
Continuous
 62
     7
370
    15
100
AcDbLine
 10
217.6227552141
 20
153.33
 30
0.0
 11
217.6227552141
 21
149.33
 31
0.0
  0
ARC
  5
16C
330
1F
100
AcDbEntity
  8
0
  6
Continuous
 62
     7
370
    15
100
AcDbCircle
 10
218.6227552141
 20
149.33
 30
0.0
 40
1.0
100
AcDbArc
 50
180.0
 51
270.0
  0
LINE
  5
16D
330
1F
100
AcDbEntity
  8
0
  6
Continuous
 62
     7
370
    15
100
AcDbLine
 10
218.6227552141
 20
148.33
 30
0.0
 11
222.6227552141
 21
148.33
 31
0.0
  0
ARC
  5
16E
330
1F
100
AcDbEntity
  8
0
  6
Continuous
 62
     7
370
    15
100
AcDbCircle
 10
222.6227552141
 20
147.33
 30
0.0
 40
1.0
100
AcDbArc
 50
0.0
 51
90.0
  0
LINE
  5
16F
330
1F
100
AcDbEntity
  8
0
  6
Continuous
 62
     7
370
    15
100
AcDbLine
 10
223.6227552141
 20
115.33
 30
0.0
 11
223.6227552141
 21
147.33
 31
0.0
  0
ARC
  5
170
330
1F
100
AcDbEntity
  8
0
  6
Continuous
 62
     7
370
    15
100
AcDbCircle
 10
222.6227552141
 20
115.33
 30
0.0
 40
1.0
100
AcDbArc
 50
270.0
 51
0.0
  0
LINE
  5
171
330
1F
100
AcDbEntity
  8
0
  6
Continuous
 62
     7
370
    15
100
AcDbLine
 10
212.6227552141
 20
114.33
 30
0.0
 11
222.6227552141
 21
114.33
 31
0.0
  0
LINE
  5
172
330
1F
100
AcDbEntity
  8
0
  6
Continuous
 62
     7
370
    15
100
AcDbLine
 10
212.6227552141
 20
108.33
 30
0.0
 11
212.6227552141
 21
114.33
 31
0.0
  0
LINE
  5
173
330
1F
100
AcDbEntity
  8
0
  6
Continuous
 62
     7
370
    15
100
AcDbLine
 10
211.1227552141
 20
108.33
 30
0.0
 11
212.6227552141
 21
108.33
 31
0.0
  0
LINE
  5
174
330
1F
100
AcDbEntity
  8
0
  6
Continuous
 62
     7
370
    15
100
AcDbLine
 10
211.1227552141
 20
105.33
 30
0.0
 11
211.1227552141
 21
108.33
 31
0.0
  0
LINE
  5
175
330
1F
100
AcDbEntity
  8
0
  6
Continuous
 62
     7
370
    15
100
AcDbLine
 10
212.6227552141
 20
105.33
 30
0.0
 11
211.1227552141
 21
105.33
 31
0.0
  0
LINE
  5
176
330
1F
100
AcDbEntity
  8
0
  6
Continuous
 62
     7
370
    15
100
AcDbLine
 10
212.6227552141
 20
103.33
 30
0.0
 11
212.6227552141
 21
105.33
 31
0.0
  0
ARC
  5
177
330
1F
100
AcDbEntity
  8
0
  6
Continuous
 62
     7
370
    15
100
AcDbCircle
 10
211.6227552141
 20
103.33
 30
0.0
 40
1.000000000000014
100
AcDbArc
 50
270.0
 51
0.0
  0
LINE
  5
178
330
1F
100
AcDbEntity
  8
0
  6
Continuous
 62
     7
370
    15
100
AcDbLine
 10
189.1227552141
 20
102.33
 30
0.0
 11
211.6227552141
 21
102.33
 31
0.0
  0
DIMENSION
  5
179
330
1F
100
AcDbEntity
  8
DIMENSIONS
100
AcDbDimension
  2
_D
 10
263.6227552141
 20
102.33
 30
0.0
 11
263.6227552141
 21
135.2497572644
 31
0.0
 70
   160
  1
<>
 71
     2
 42
-1.0
  3
SLDDIMSTYLE0
100
AcDbAlignedDimension
 13
211.6227552141
 23
166.83
 33
0.0
 14
211.6227552141
 24
102.33
 34
0.0
 50
90.0
100
AcDbRotatedDimension
  0
DIMENSION
  5
18B
330
1F
100
AcDbEntity
  8
DIMENSIONS
100
AcDbDimension
  2
_D_1
 10
168.5227552141
 20
86.33
 30
0.0
 11
197.3202993303
 21
86.33
 31
0.0
 70
   160
  1
<>
 71
     2
 42
-1.0
  3
SLDDIMSTYLE0
100
AcDbAlignedDimension
 13
223.6227552141
 23
115.33
 33
0.0
 14
168.5227552141
 24
117.33
 34
0.0
100
AcDbRotatedDimension
  0
ENDSEC
  0
SECTION
  2
OBJECTS
  0
DICTIONARY
  5
C
330
0
100
AcDbDictionary
281
     1
  3
ACAD_GROUP
350
D
  3
ACAD_LAYOUT
350
1A
  3
ACAD_MLINESTYLE
350
17
  3
ACAD_PLOTSETTINGS
350
19
  3
ACAD_PLOTSTYLENAME
350
E
  3
ACAD_SCALELIST
350
47
  0
DICTIONARY
  5
D
102
{ACAD_REACTORS
330
C
102
}
330
C
100
AcDbDictionary
281
     1
  0
DICTIONARY
  5
1A
102
{ACAD_REACTORS
330
C
102
}
330
C
100
AcDbDictionary
281
     1
  3
Layout1
350
1E
  3
Layout2
350
26
  3
Model
350
22
  0
DICTIONARY
  5
17
102
{ACAD_REACTORS
330
C
102
}
330
C
100
AcDbDictionary
281
     1
  3
Standard
350
18
  0
DICTIONARY
  5
19
102
{ACAD_REACTORS
330
C
102
}
330
C
100
AcDbDictionary
281
     1
  0
ACDBDICTIONARYWDFLT
  5
E
102
{ACAD_REACTORS
330
C
102
}
330
C
100
AcDbDictionary
281
     1
  3
Normal
350
F
100
AcDbDictionaryWithDefault
340
F
  0
DICTIONARY
  5
47
102
{ACAD_REACTORS
330
C
102
}
330
C
100
AcDbDictionary
281
     1
  3
A0
350
48
  3
A1
350
49
  3
A2
350
4A
  3
A3
350
4B
  3
A4
350
4C
  3
A5
350
4D
  3
A6
350
4E
  3
A7
350
4F
  3
A8
350
50
  3
A9
350
51
  3
B0
350
52
  3
B1
350
53
  3
B2
350
54
  3
B3
350
55
  3
B4
350
56
  3
B5
350
57
  3
B6
350
58
  3
B7
350
59
  3
B8
350
5A
  3
B9
350
5B
  3
C0
350
5C
  3
C1
350
5D
  3
C2
350
5E
  3
C3
350
5F
  3
C4
350
60
  3
C5
350
61
  3
C6
350
62
  3
C7
350
63
  3
C8
350
64
  3
C9
350
65
  3
D0
350
66
  3
D1
350
67
  3
D2
350
68
  0
LAYOUT
  5
1E
102
{ACAD_REACTORS
330
1A
102
}
330
1A
100
AcDbPlotSettings
  1

  2
none_device
  4

  6

 40
0.0
 41
0.0
 42
0.0
 43
0.0
 44
0.0
 45
0.0
 46
0.0
 47
0.0
 48
0.0
 49
0.0
140
0.0
141
0.0
142
1.0
143
1.0
 70
   688
 72
     1
 73
     0
 74
     5
  7

 75
    16
147
1.0
148
0.0
149
0.0
100
AcDbLayout
  1
Layout1
 70
     1
 71
     1
 10
0.0
 20
0.0
 11
420.0
 21
297.0
 12
0.0
 22
0.0
 32
0.0
 14
1.0000000000E+20
 24
1.0000000000E+20
 34
1.0000000000E+20
 15
-1.0000000000E+20
 25
-1.0000000000E+20
 35
-1.0000000000E+20
146
0.0
 13
0.0
 23
0.0
 33
0.0
 16
1.0
 26
0.0
 36
0.0
 17
0.0
 27
1.0
 37
0.0
 76
     0
330
1B
  0
LAYOUT
  5
26
102
{ACAD_REACTORS
330
1A
102
}
330
1A
100
AcDbPlotSettings
  1

  2
none_device
  4

  6

 40
0.0
 41
0.0
 42
0.0
 43
0.0
 44
0.0
 45
0.0
 46
0.0
 47
0.0
 48
0.0
 49
0.0
140
0.0
141
0.0
142
1.0
143
1.0
 70
   688
 72
     1
 73
     0
 74
     5
  7

 75
    16
147
1.0
148
0.0
149
0.0
100
AcDbLayout
  1
Layout2
 70
     1
 71
     2
 10
0.0
 20
0.0
 11
0.0
 21
0.0
 12
0.0
 22
0.0
 32
0.0
 14
0.0
 24
0.0
 34
0.0
 15
0.0
 25
0.0
 35
0.0
146
0.0
 13
0.0
 23
0.0
 33
0.0
 16
1.0
 26
0.0
 36
0.0
 17
0.0
 27
1.0
 37
0.0
 76
     0
330
23
  0
LAYOUT
  5
22
102
{ACAD_REACTORS
330
1A
102
}
330
1A
100
AcDbPlotSettings
  1

  2
none_device
  4
Letter_(8.50_x_11.00_Inches)
  6

 40
6.35
 41
6.35
 42
6.35000508
 43
6.35000508
 44
215.9
 45
279.4
 46
0.0
 47
0.0
 48
0.0
 49
0.0
140
0.0
141
0.0
142
1.0
143
1.0
 70
  1712
 72
     1
 73
     0
 74
     0
  7

 75
     0
147
1.0
148
0.0
149
0.0
100
AcDbLayout
  1
Model
 70
     1
 71
     0
 10
0.0
 20
0.0
 11
297.0
 21
210.0
 12
0.0
 22
0.0
 32
0.0
 14
0.0
 24
0.0
 34
0.0
 15
297.0
 25
210.0
 35
0.0
146
0.0
 13
0.0
 23
0.0
 33
0.0
 16
1.0
 26
0.0
 36
0.0
 17
0.0
 27
1.0
 37
0.0
 76
     0
330
1F
331
29
  0
MLINESTYLE
  5
18
102
{ACAD_REACTORS
330
17
102
}
330
17
100
AcDbMlineStyle
  2
Standard
 70
     0
  3

 62
   256
 51
90.0
 52
90.0
 71
     2
 49
0.5
 62
   256
  6
BYLAYER
 49
-0.5
 62
   256
  6
BYLAYER
  0
ACDBPLACEHOLDER
  5
F
102
{ACAD_REACTORS
330
E
102
}
330
E
  0
SCALE
  5
48
102
{ACAD_REACTORS
330
47
102
}
330
47
100
AcDbScale
 70
     0
300
1:1
140
1.0
141
1.0
290
     1
  0
SCALE
  5
49
102
{ACAD_REACTORS
330
47
102
}
330
47
100
AcDbScale
 70
     0
300
1:2
140
1.0
141
2.0
290
     0
  0
SCALE
  5
4A
102
{ACAD_REACTORS
330
47
102
}
330
47
100
AcDbScale
 70
     0
300
1:4
140
1.0
141
4.0
290
     0
  0
SCALE
  5
4B
102
{ACAD_REACTORS
330
47
102
}
330
47
100
AcDbScale
 70
     0
300
1:5
140
1.0
141
5.0
290
     0
  0
SCALE
  5
4C
102
{ACAD_REACTORS
330
47
102
}
330
47
100
AcDbScale
 70
     0
300
1:8
140
1.0
141
8.0
290
     0
  0
SCALE
  5
4D
102
{ACAD_REACTORS
330
47
102
}
330
47
100
AcDbScale
 70
     0
300
1:10
140
1.0
141
10.0
290
     0
  0
SCALE
  5
4E
102
{ACAD_REACTORS
330
47
102
}
330
47
100
AcDbScale
 70
     0
300
1:16
140
1.0
141
16.0
290
     0
  0
SCALE
  5
4F
102
{ACAD_REACTORS
330
47
102
}
330
47
100
AcDbScale
 70
     0
300
1:20
140
1.0
141
20.0
290
     0
  0
SCALE
  5
50
102
{ACAD_REACTORS
330
47
102
}
330
47
100
AcDbScale
 70
     0
300
1:30
140
1.0
141
30.0
290
     0
  0
SCALE
  5
51
102
{ACAD_REACTORS
330
47
102
}
330
47
100
AcDbScale
 70
     0
300
1:40
140
1.0
141
40.0
290
     0
  0
SCALE
  5
52
102
{ACAD_REACTORS
330
47
102
}
330
47
100
AcDbScale
 70
     0
300
1:50
140
1.0
141
50.0
290
     0
  0
SCALE
  5
53
102
{ACAD_REACTORS
330
47
102
}
330
47
100
AcDbScale
 70
     0
300
1:100
140
1.0
141
100.0
290
     0
  0
SCALE
  5
54
102
{ACAD_REACTORS
330
47
102
}
330
47
100
AcDbScale
 70
     0
300
2:1
140
2.0
141
1.0
290
     0
  0
SCALE
  5
55
102
{ACAD_REACTORS
330
47
102
}
330
47
100
AcDbScale
 70
     0
300
4:1
140
4.0
141
1.0
290
     0
  0
SCALE
  5
56
102
{ACAD_REACTORS
330
47
102
}
330
47
100
AcDbScale
 70
     0
300
8:1
140
8.0
141
1.0
290
     0
  0
SCALE
  5
57
102
{ACAD_REACTORS
330
47
102
}
330
47
100
AcDbScale
 70
     0
300
10:1
140
10.0
141
1.0
290
     0
  0
SCALE
  5
58
102
{ACAD_REACTORS
330
47
102
}
330
47
100
AcDbScale
 70
     0
300
100:1
140
100.0
141
1.0
290
     0
  0
SCALE
  5
59
102
{ACAD_REACTORS
330
47
102
}
330
47
100
AcDbScale
 70
     0
300
1/128" = 1'-0"
140
0.0078125
141
12.0
290
     0
  0
SCALE
  5
5A
102
{ACAD_REACTORS
330
47
102
}
330
47
100
AcDbScale
 70
     0
300
1/64" = 1'-0"
140
0.015625
141
12.0
290
     0
  0
SCALE
  5
5B
102
{ACAD_REACTORS
330
47
102
}
330
47
100
AcDbScale
 70
     0
300
1/32" = 1'-0"
140
0.03125
141
12.0
290
     0
  0
SCALE
  5
5C
102
{ACAD_REACTORS
330
47
102
}
330
47
100
AcDbScale
 70
     0
300
1/16" = 1'-0"
140
0.0625
141
12.0
290
     0
  0
SCALE
  5
5D
102
{ACAD_REACTORS
330
47
102
}
330
47
100
AcDbScale
 70
     0
300
3/32" = 1'-0"
140
0.09375
141
12.0
290
     0
  0
SCALE
  5
5E
102
{ACAD_REACTORS
330
47
102
}
330
47
100
AcDbScale
 70
     0
300
1/8" = 1'-0"
140
0.125
141
12.0
290
     0
  0
SCALE
  5
5F
102
{ACAD_REACTORS
330
47
102
}
330
47
100
AcDbScale
 70
     0
300
3/16" = 1'-0"
140
0.1875
141
12.0
290
     0
  0
SCALE
  5
60
102
{ACAD_REACTORS
330
47
102
}
330
47
100
AcDbScale
 70
     0
300
1/4" = 1'-0"
140
0.25
141
12.0
290
     0
  0
SCALE
  5
61
102
{ACAD_REACTORS
330
47
102
}
330
47
100
AcDbScale
 70
     0
300
3/8" = 1'-0"
140
0.375
141
12.0
290
     0
  0
SCALE
  5
62
102
{ACAD_REACTORS
330
47
102
}
330
47
100
AcDbScale
 70
     0
300
1/2" = 1'-0"
140
0.5
141
12.0
290
     0
  0
SCALE
  5
63
102
{ACAD_REACTORS
330
47
102
}
330
47
100
AcDbScale
 70
     0
300
3/4" = 1'-0"
140
0.75
141
12.0
290
     0
  0
SCALE
  5
64
102
{ACAD_REACTORS
330
47
102
}
330
47
100
AcDbScale
 70
     0
300
1" = 1'-0"
140
1.0
141
12.0
290
     0
  0
SCALE
  5
65
102
{ACAD_REACTORS
330
47
102
}
330
47
100
AcDbScale
 70
     0
300
1-1/2" = 1'-0"
140
1.5
141
12.0
290
     0
  0
SCALE
  5
66
102
{ACAD_REACTORS
330
47
102
}
330
47
100
AcDbScale
 70
     0
300
3" = 1'-0"
140
3.0
141
12.0
290
     0
  0
SCALE
  5
67
102
{ACAD_REACTORS
330
47
102
}
330
47
100
AcDbScale
 70
     0
300
6" = 1'-0"
140
6.0
141
12.0
290
     0
  0
SCALE
  5
68
102
{ACAD_REACTORS
330
47
102
}
330
47
100
AcDbScale
 70
     0
300
1'-0" = 1'-0"
140
12.0
141
12.0
290
     0
  0
ENDSEC
  0
EOF
